<svg width="1216" height="386" viewBox="0 0 1216 386" fill="none" xmlns="http://www.w3.org/2000/svg">
<g clip-path="url(#clip0_1_18)">
<path d="M140.172 284.816L63.2766 308.088L67.5108 340.888L150.584 344.593L140.172 284.816Z" stroke="black" stroke-width="1.57994" stroke-linecap="round" stroke-linejoin="round"/>
<path d="M87.9789 342.136L85.767 369.785L36.465 372.107V342.136L76.6823 353.377L67.5108 340.888L87.9789 342.136Z" stroke="black" stroke-width="1.57994" stroke-linecap="round" stroke-linejoin="round"/>
<path d="M36.465 345.414C26.3218 344.387 16.1786 343.36 6.03537 342.325C4.79512 342.199 3.54697 342.057 2.30672 341.946C1.06646 341.835 0.173799 342.381 0.0237047 343.629C-0.0552922 344.277 0.0632032 344.972 0.102702 345.627C0.197498 347.326 0.268595 349.016 0.355492 350.715C0.600382 355.778 0.868972 360.834 1.30346 365.882C1.70634 370.622 2.12502 375.472 3.31788 380.094C3.67336 381.468 4.09205 383.017 5.04791 384.115C5.4192 384.541 5.90108 384.849 6.46985 384.897C8.38948 385.055 9.91412 383.364 10.5382 381.721C10.9253 380.702 11.0438 379.612 11.1702 378.537L9.81933 379.098C10.6093 380.07 10.6804 381.468 11.0675 382.614C11.4546 383.759 12.2287 384.818 13.3663 385.323C14.5591 385.853 15.9021 385.529 16.5736 384.36C16.9212 383.759 17.0554 383.064 17.1818 382.4C17.3398 381.595 17.4583 380.781 17.5373 379.967C17.7269 378.166 17.719 376.349 17.5294 374.556L15.9811 374.769C16.2181 376.373 16.4551 377.977 16.6842 379.58C16.8817 380.915 17.1107 382.543 18.6275 382.993C19.2437 383.175 19.923 383.08 20.4049 382.637C20.8868 382.195 21.0685 381.452 21.2344 380.821C21.6215 379.296 21.7716 377.716 21.6926 376.152C21.6452 375.141 20.1205 375.125 20.1126 376.152C20.1126 377.36 20.0968 378.569 20.0889 379.778C20.0889 380.765 19.9467 381.926 20.5866 382.764C21.1396 383.483 22.1033 383.672 22.9407 383.356C23.8413 383.017 24.4417 382.258 24.6628 381.334C24.9077 380.307 24.7734 379.225 24.6944 378.19C24.6076 377.005 24.4891 375.82 24.339 374.643C24.0467 372.336 23.6596 370.045 23.1619 367.778C22.5931 365.211 21.8822 362.675 21.0369 360.187L20.0652 361.158C25.4291 362.896 30.9036 364.271 36.2675 366.009C36.7573 366.167 37.2708 365.74 37.2708 365.25V346.22C37.2708 345.201 35.6908 345.201 35.6908 346.22V365.25L36.6941 364.492C31.3302 362.754 25.8557 361.379 20.4918 359.641C19.9388 359.46 19.3306 360.052 19.5201 360.613C20.8157 364.437 21.7953 368.363 22.4351 372.352C22.7511 374.319 22.9802 376.302 23.1303 378.293C23.1935 379.138 23.3436 380.086 23.1461 380.923C23.0355 381.366 22.6168 382.116 22.0244 381.934C21.7479 381.847 21.7084 381.524 21.6847 381.271C21.6373 380.757 21.6768 380.22 21.6847 379.699C21.6847 378.522 21.7005 377.345 21.7084 376.168H20.1284C20.1837 377.384 20.1126 378.601 19.8677 379.794C19.765 380.291 19.686 380.884 19.4491 381.342C19.3148 381.61 19.0699 381.547 18.8487 381.366C18.5011 381.073 18.43 380.497 18.3589 380.078C18.2562 379.462 18.1772 378.838 18.0824 378.214C17.8928 376.934 17.7032 375.646 17.5136 374.366C17.3872 373.497 15.8705 373.687 15.9653 374.58C16.147 376.318 16.1628 378.071 15.9969 379.809C15.91 380.67 15.7836 381.524 15.6019 382.369C15.4913 382.89 15.3807 383.775 14.7882 383.996C14.3458 384.162 13.8403 383.862 13.5085 383.585C13.0266 383.183 12.7422 382.669 12.5605 382.077C12.1102 380.647 11.9285 379.201 10.9569 378.008C10.475 377.416 9.67713 377.969 9.60603 378.569C9.41644 380.244 9.09255 382.63 7.21243 383.254C7.02283 383.317 6.85694 383.34 6.65945 383.356C6.50935 383.364 6.44616 383.301 6.66735 383.372C6.53305 383.325 6.39086 383.246 6.58835 383.372C6.51725 383.333 6.43826 383.277 6.36716 383.246C6.57255 383.356 6.36716 383.246 6.28026 383.151C6.24076 383.111 6.20917 383.072 6.17757 383.032C6.03537 382.89 6.22496 383.104 6.17757 383.032C6.10647 382.93 6.03537 382.827 5.96427 382.716C5.81418 382.472 5.68779 382.211 5.56929 381.942C5.51399 381.816 5.57719 381.974 5.58509 381.99C5.56929 381.95 5.55349 381.911 5.53769 381.863C5.50609 381.784 5.47449 381.713 5.45079 381.634C5.3876 381.46 5.3244 381.287 5.2691 381.113C5.14271 380.734 5.03211 380.354 4.92941 379.975C3.76026 375.662 3.37317 371.238 2.97819 366.806C2.53581 361.909 2.25932 357.003 2.01443 352.089C1.92753 350.288 1.84853 348.487 1.75374 346.694C1.72214 346.109 1.69054 345.533 1.65104 344.948C1.62734 344.632 1.58784 344.308 1.59574 343.992C1.59574 343.573 1.66684 343.51 2.08552 343.534C2.6859 343.566 3.29418 343.652 3.89455 343.716C13.5796 344.695 23.2646 345.683 32.9496 346.662L36.4808 347.018C36.9074 347.057 37.2708 346.623 37.2708 346.228C37.2708 345.762 36.9074 345.477 36.4808 345.438L36.465 345.414Z" fill="black"/>
<path d="M150.584 344.593L153.76 356.497L198.211 348.037V377.929L137.091 368.939L138.418 344.055L150.584 344.593Z" stroke="black" stroke-width="1.57994" stroke-linecap="round" stroke-linejoin="round"/>
<path d="M140.938 285.029C141.278 283.615 141.918 282.319 142.921 281.253C143.925 280.186 145.22 279.381 146.571 278.765C149.968 277.208 153.807 276.553 157.528 276.829C165.712 277.445 172.695 282.256 177.996 288.244C183.06 293.964 187.333 301.279 186.457 309.186C186.054 312.796 184.497 316.272 181.954 318.879C179.41 321.486 176.1 323.137 172.632 324.077C165.238 326.076 157.101 324.796 150.292 321.462C149.391 321.02 148.506 320.546 147.637 320.048C146.768 319.551 145.955 320.909 146.84 321.415C150.394 323.437 154.186 325.033 158.199 325.847C162.212 326.66 166.486 326.85 170.578 326.147C174.409 325.483 178.154 324.022 181.243 321.628C184.347 319.219 186.543 315.83 187.531 312.03C189.664 303.807 185.998 295.709 180.966 289.334C175.737 282.714 168.73 277.098 160.237 275.597C156.066 274.862 151.903 275.202 147.898 276.568C144.833 277.619 141.8 279.333 140.275 282.319C139.904 283.046 139.627 283.82 139.438 284.618C139.201 285.606 140.725 286.024 140.962 285.037L140.938 285.029Z" fill="black"/>
<path d="M187.357 306.319C177.87 306.153 168.145 303.483 159.819 299.485C151.453 295.472 144.707 288.11 144.169 279.76C146.05 278.267 148.34 277.153 150.781 276.56C156.13 275.257 161.983 276.237 166.873 278.551C171.755 280.866 175.76 284.413 179.094 288.307C182.941 292.786 186.038 297.898 187.049 303.435C187.223 304.391 187.325 305.355 187.357 306.326V306.319Z" fill="black"/>
<path d="M187.357 305.924C179.528 305.774 171.763 303.996 164.495 301.105C161.193 299.793 157.954 298.277 155.039 296.215C152.385 294.335 149.984 292.044 148.119 289.366C146.136 286.522 144.793 283.228 144.556 279.752L144.438 280.028C150.734 275.075 159.732 275.605 166.66 278.883C170.057 280.487 173.106 282.746 175.792 285.361C178.478 287.976 180.927 290.93 182.894 294.137C185.153 297.819 186.796 301.966 186.954 306.319C186.97 306.824 187.76 306.824 187.744 306.319C187.46 298.49 182.759 291.459 177.506 285.969C172.253 280.479 165.167 276.134 157.267 275.628C153.357 275.376 149.36 276.094 145.947 278.069C145.536 278.306 145.141 278.559 144.754 278.828C144.477 279.025 143.885 279.31 143.782 279.649C143.695 279.942 143.822 280.423 143.861 280.724C143.909 281.126 143.972 281.529 144.043 281.924C144.343 283.512 144.865 285.045 145.552 286.506C148.522 292.842 154.336 297.384 160.561 300.267C168.026 303.72 176.108 305.979 184.324 306.579C185.335 306.65 186.346 306.698 187.357 306.714C187.863 306.722 187.863 305.932 187.357 305.924Z" fill="black"/>
<path d="M197.998 374.035C201.742 375.583 205.748 376.468 209.816 376.491C210.874 376.491 211.941 376.444 212.992 376.341C214.042 376.239 215.243 376.183 216.238 375.828C217.321 375.441 217.676 374.453 217.092 373.458C216.641 372.684 215.835 372.218 215.038 371.878C212.755 370.906 210.298 370.306 207.849 369.911L207.636 371.459C209.429 371.436 211.119 371.981 212.865 372.313C214.611 372.644 216.388 372.715 218.079 372.194C218.829 371.965 219.833 371.633 220.157 370.843C220.504 370.006 219.856 369.255 219.272 368.718C218.134 367.675 216.641 367.075 215.148 366.751C212.999 366.285 210.78 366.293 208.591 366.301L208.805 367.849C210.835 367.344 212.905 367.51 214.951 367.841C216.894 368.149 219.074 368.781 220.899 367.731C221.689 367.28 222.455 366.514 222.55 365.574C222.645 364.634 222.053 363.923 221.389 363.394C219.943 362.24 218.047 361.885 216.246 361.79C213.845 361.664 211.443 362.019 209.042 361.996L209.437 363.465C210.811 362.872 212.304 362.904 213.766 362.967C215.227 363.03 216.641 363.046 218.055 362.707C218.719 362.549 219.367 362.311 219.999 362.043C220.631 361.774 221.318 361.458 221.8 360.937C222.811 359.847 222.368 358.338 221.413 357.39C219.454 355.423 216.215 355.613 213.687 355.865C211.159 356.118 208.757 356.426 206.301 356.75C203.52 357.121 200.739 357.508 197.974 358.006C197.635 358.069 197.398 358.441 197.398 358.765V373.268C197.398 374.287 198.978 374.287 198.978 373.268V358.765L198.401 359.523C202.872 358.717 207.383 358.14 211.894 357.627C213.11 357.493 214.327 357.343 215.543 357.295C216.76 357.248 218.055 357.295 219.201 357.777C219.777 358.022 221.176 358.891 220.749 359.713C220.512 360.163 219.793 360.416 219.367 360.597C218.782 360.85 218.174 361.048 217.558 361.19C216.136 361.522 214.69 361.403 213.244 361.356C211.641 361.3 210.124 361.443 208.639 362.09C207.888 362.414 208.315 363.552 209.034 363.56C210.938 363.575 212.826 363.37 214.729 363.331C216.302 363.299 218.016 363.354 219.461 364.034C219.943 364.263 220.733 364.666 220.939 365.203C221.16 365.779 220.188 366.348 219.777 366.506C218.94 366.838 218.008 366.72 217.139 366.585C216.27 366.451 215.44 366.301 214.587 366.182C212.502 365.882 210.432 365.803 208.37 366.309C207.501 366.522 207.691 367.865 208.584 367.857C211.475 367.857 214.816 367.691 217.384 369.255C217.613 369.398 217.834 369.548 218.032 369.721C218.142 369.816 218.529 370.338 218.64 370.353C218.711 370.353 218.758 370.195 218.695 370.18C218.687 370.18 218.569 370.266 218.553 370.274C218.427 370.353 218.284 370.409 218.15 370.464C217.787 370.614 217.407 370.717 217.028 370.804C215.614 371.12 214.153 370.962 212.755 370.661C211.048 370.298 209.366 369.832 207.604 369.856C206.751 369.864 206.482 371.262 207.391 371.404C209.287 371.712 211.167 372.155 212.992 372.771C213.75 373.031 214.572 373.276 215.227 373.742C215.354 373.837 215.48 373.94 215.583 374.058C215.646 374.129 215.717 374.359 215.78 374.39C215.693 374.343 215.946 374.303 215.788 374.264C215.788 374.264 215.519 374.351 215.583 374.335C215.346 374.406 215.093 374.438 214.848 374.477C211.238 375.077 207.517 375.014 203.946 374.24C202.043 373.829 200.186 373.221 198.385 372.478C197.99 372.313 197.516 372.652 197.413 373.031C197.287 373.482 197.571 373.837 197.966 374.003L197.998 374.035Z" fill="black"/>
<path d="M156.627 324.828C156.359 325.649 156.09 326.463 155.821 327.284C155.6 327.956 155.434 328.714 155.79 329.378C156.145 330.041 156.872 330.286 157.536 330.507C158.255 330.744 158.981 330.918 159.732 331.037C162.765 331.526 165.886 331.124 168.682 329.852C169.448 329.504 170.207 329.085 170.483 328.232C170.736 327.45 170.396 326.668 170.539 325.894C170.728 324.899 169.204 324.472 169.014 325.475C168.935 325.886 168.927 326.273 168.959 326.684C168.99 327.016 169.085 327.427 168.974 327.75C168.801 328.28 167.774 328.556 167.3 328.738C165.822 329.307 164.266 329.623 162.686 329.67C161.106 329.717 159.534 329.496 158.033 329.014C157.836 328.951 157.322 328.856 157.188 328.651C157.07 328.469 157.22 328.13 157.275 327.94C157.544 327.039 157.86 326.147 158.152 325.254C158.468 324.282 156.943 323.872 156.627 324.835V324.828Z" fill="black"/>
<path d="M159.866 330.436C159.819 331.163 159.835 331.89 159.914 332.609C159.993 333.328 160.103 334.125 160.34 334.836C160.775 336.132 162.078 336.772 163.366 336.922C164.48 337.056 165.688 336.756 166.589 336.085C167.592 335.342 168.169 334.252 168.311 333.02C168.461 331.708 168.019 330.357 167.11 329.394C166.407 328.651 165.293 329.773 165.996 330.507C166.218 330.744 166.47 331.131 166.565 331.416C166.636 331.629 166.691 331.842 166.731 332.056C166.763 332.222 166.739 332.127 166.731 332.095C166.731 332.151 166.739 332.206 166.747 332.261C166.755 332.388 166.755 332.514 166.747 332.632C166.747 332.727 166.739 332.83 166.731 332.925C166.715 333.091 166.723 332.996 166.731 332.964C166.723 333.02 166.715 333.075 166.699 333.13C166.66 333.328 166.573 333.62 166.518 333.746C166.36 334.11 166.146 334.394 165.815 334.686C165.593 334.884 165.183 335.105 164.89 335.2C164.693 335.263 164.495 335.31 164.29 335.342C164.156 335.366 164.393 335.334 164.258 335.342C164.203 335.342 164.148 335.35 164.092 335.358C163.966 335.358 163.848 335.366 163.721 335.358C163.611 335.358 163.5 335.35 163.397 335.334C163.532 335.35 163.231 335.295 163.208 335.295C163.113 335.271 163.026 335.247 162.931 335.224C162.876 335.208 162.829 335.192 162.773 335.168C162.742 335.152 162.607 335.097 162.702 335.137C162.307 334.955 161.983 334.757 161.857 334.402C161.414 333.154 161.359 331.724 161.438 330.413C161.462 329.986 161.059 329.623 160.648 329.623C160.198 329.623 159.882 329.986 159.858 330.413L159.866 330.436Z" fill="black"/>
<path d="M164.306 311.856C164.306 311.856 161.154 320.72 178.738 316.351" stroke="black" stroke-width="1.57994" stroke-linecap="round" stroke-linejoin="round"/>
<path d="M468.973 384.802L513.662 383.657C516.498 383.585 518.654 381.176 518.22 378.522C517.398 373.458 513.322 366.743 496.749 369.477C495.627 369.658 494.473 369.413 493.486 368.568C491.898 367.217 491.827 363.299 493.62 356.537L472.07 355.32L468.965 384.802H468.973Z" stroke="black" stroke-width="1.57994" stroke-miterlimit="3"/>
<path d="M526.088 384.802L573.384 383.657C576.385 383.585 578.668 381.176 578.21 378.522C577.341 373.458 573.028 366.743 555.483 369.477C554.298 369.658 553.081 369.413 552.031 368.568C550.348 367.217 550.277 363.797 552.173 357.042H533.253L526.08 384.81L526.088 384.802Z" stroke="black" stroke-width="1.57994" stroke-miterlimit="3"/>
<path d="M464.684 136.712L421.133 240.641L436.45 245.254L474.211 187.444L464.684 136.712Z" stroke="black" stroke-width="1.57994" stroke-miterlimit="3"/>
<path d="M576.804 135.203L625.3 220.228L608.371 228.048L563.706 172.948L576.804 135.203Z" stroke="black" stroke-width="1.57994" stroke-miterlimit="3"/>
<path d="M433.132 244.527C433.456 248.572 432.959 252.632 431.821 256.527C431.276 258.399 430.589 260.24 429.751 262.009C429.372 262.823 428.946 263.81 428.179 264.332C427.942 264.49 427.618 264.64 427.326 264.537C426.955 264.395 426.907 263.881 426.852 263.542C426.457 261.148 426.955 258.668 427.413 256.321C427.603 255.334 426.141 254.907 425.888 255.903C425.564 257.182 425.217 258.454 424.83 259.718C424.648 260.303 424.466 260.895 424.269 261.48C424.19 261.709 424.111 261.946 423.977 262.151C424 262.12 423.771 262.396 423.771 262.38C423.771 262.357 423.921 262.491 423.921 262.452C423.913 262.357 423.811 262.207 423.803 262.088C423.779 261.883 423.803 261.662 423.819 261.456C423.874 260.895 424.04 260.342 424.158 259.797C424.451 258.47 424.743 257.143 425.027 255.816L423.503 255.397C423.313 256.456 423.06 257.506 422.713 258.533C422.547 259.023 422.365 259.505 422.16 259.979C422.041 260.255 421.836 260.935 421.575 261.077C421.591 261.069 421.646 261.061 421.67 261.077C421.607 261.03 421.567 260.966 421.528 260.911C421.409 260.729 421.362 260.485 421.338 260.271C421.267 259.75 421.322 259.197 421.354 258.676C421.433 257.546 421.638 256.44 421.931 255.35L420.406 254.931C419.979 256.622 419.332 258.233 418.384 259.695C418.265 259.876 418.147 260.05 418.02 260.224C417.925 260.358 417.72 260.54 417.657 260.69C417.625 260.769 417.53 260.729 417.657 260.753C417.799 260.785 417.688 260.722 417.688 260.698C417.688 260.595 417.436 260.287 417.396 260.161C417.104 259.315 417.135 258.375 417.222 257.498C417.404 255.658 417.823 253.77 418.32 251.984C418.818 250.199 419.6 248.548 420.532 246.944C421.63 245.056 422.8 243.208 423.937 241.336C424.466 240.467 423.1 239.669 422.57 240.538C420.28 244.282 417.681 247.948 416.606 252.269C416.33 253.367 416.116 254.489 415.919 255.603C415.721 256.716 415.548 257.751 415.587 258.833C415.627 259.845 415.816 260.998 416.519 261.764C417.286 262.602 418.32 262.396 418.984 261.567C420.422 259.758 421.37 257.577 421.931 255.35C422.175 254.362 420.675 253.944 420.406 254.931C420.019 256.361 419.79 257.846 419.742 259.331C419.703 260.54 419.9 262.309 421.346 262.625C422.792 262.941 423.463 260.99 423.882 259.947C424.411 258.62 424.79 257.23 425.035 255.824C425.209 254.836 423.732 254.402 423.51 255.405C423.139 257.111 422.744 258.81 422.389 260.524C422.16 261.614 421.986 263.336 423.274 263.866C424.932 264.545 425.659 262.38 426.031 261.227C426.552 259.616 427.018 257.98 427.429 256.337L425.904 255.919C425.438 258.344 424.964 260.84 425.256 263.313C425.391 264.426 425.651 265.619 426.836 266.046C427.847 266.409 428.922 265.92 429.641 265.201C430.423 264.411 430.905 263.368 431.355 262.373C431.805 261.377 432.248 260.295 432.635 259.228C433.425 257.04 434.017 254.773 434.388 252.474C434.807 249.859 434.949 247.205 434.736 244.559C434.657 243.555 433.077 243.54 433.156 244.559L433.132 244.527Z" fill="black"/>
<path d="M623.009 222.527C625.474 225.544 627.015 229.225 627.876 232.994C628.318 234.921 628.602 236.904 628.689 238.879C628.729 239.827 628.713 240.838 628.207 241.675C628.034 241.96 627.781 242.26 627.457 242.363C627.038 242.505 626.746 242.126 626.477 241.841C624.992 240.253 624.25 238.113 623.523 236.106C623.183 235.166 621.714 235.537 621.998 236.525C622.354 237.741 622.67 238.966 622.954 240.206C623.096 240.822 623.231 241.438 623.349 242.055C623.396 242.307 623.57 243.176 623.199 243.303C623.27 243.279 623.199 243.326 623.12 243.208C623.001 243.05 622.899 242.9 622.812 242.718C622.591 242.26 622.464 241.754 622.306 241.272C621.896 240.016 621.477 238.76 621.066 237.504L619.541 237.923C619.928 238.934 620.229 239.969 620.426 241.035C620.521 241.557 620.6 242.086 620.639 242.615C620.663 242.892 620.829 243.674 620.56 243.879C619.676 244.582 618.112 239.985 617.969 239.456L616.445 239.874C616.982 241.739 617.164 243.666 616.958 245.602C616.934 245.799 616.95 246.455 616.769 246.589C616.603 246.707 616.295 246.534 616.152 246.447C615.544 246.083 615.141 245.428 614.825 244.812C614.019 243.255 613.451 241.486 613 239.795C612.487 237.891 612.368 235.964 612.416 234.005C612.463 231.73 612.598 229.447 612.7 227.172C612.748 226.152 611.168 226.16 611.12 227.172C610.923 231.745 610.33 236.469 611.681 240.925C611.997 241.976 612.376 243.01 612.771 244.029C613.103 244.891 613.467 245.752 614.004 246.502C614.541 247.253 615.204 247.908 616.089 248.129C617.069 248.382 618.009 247.932 618.333 246.952C618.514 246.391 618.546 245.736 618.586 245.151C618.625 244.567 618.641 243.919 618.609 243.303C618.546 242.007 618.333 240.712 617.969 239.463C617.685 238.492 616.184 238.895 616.445 239.882C616.808 241.241 617.345 242.568 618.064 243.777C618.704 244.843 619.881 246.004 621.224 245.325C622.567 244.646 622.275 243.003 622.125 241.818C621.935 240.34 621.587 238.903 621.058 237.512C620.703 236.58 619.21 236.951 619.534 237.931C620.055 239.527 620.56 241.122 621.106 242.71C621.469 243.777 622.298 245.262 623.681 244.804C625.348 244.251 624.984 242.205 624.716 240.901C624.376 239.29 623.981 237.686 623.523 236.106L621.998 236.525C622.764 238.634 623.554 240.783 624.992 242.544C625.735 243.445 626.722 244.314 627.97 243.856C628.989 243.477 629.645 242.552 629.985 241.557C630.372 240.427 630.301 239.187 630.214 238.01C630.127 236.833 629.985 235.695 629.787 234.55C629.408 232.306 628.816 230.087 627.962 227.969C627.007 225.599 625.751 223.388 624.123 221.405C623.475 220.615 622.37 221.744 623.009 222.519V222.527Z" fill="black"/>
<path d="M524.556 113.084C524.556 113.084 533.624 102.396 543.847 111.125C543.847 111.125 536.824 122.659 524.556 113.084Z" stroke="black" stroke-width="1.57994" stroke-linejoin="round"/>
<path d="M534.441 116.288C536.1 116.198 537.347 114.306 537.224 112.062C537.102 109.819 535.657 108.073 533.998 108.164C532.338 108.254 531.092 110.146 531.214 112.39C531.336 114.633 532.781 116.379 534.441 116.288Z" fill="black"/>
<path d="M553.769 114.767C553.769 114.767 553.792 114.759 553.729 114.838C553.65 114.933 553.539 115.02 553.445 115.099C553.255 115.272 553.065 115.446 552.876 115.62C552.497 115.968 552.125 116.315 551.746 116.671C551.027 117.342 550.285 117.998 549.582 118.685C548.934 119.317 548.341 120.012 547.962 120.842C547.615 121.6 547.417 122.406 547.03 123.148C545.6 125.858 543.033 127.92 540.702 129.831C540.023 130.384 539.336 130.93 538.656 131.483C538.048 131.972 537.274 132.462 536.816 133.102L537.495 132.707C533.711 132.683 529.927 132.667 526.135 132.644L508.148 132.549C506.765 132.549 505.383 132.533 503.993 132.525L504.672 132.92C500.343 126.474 497.404 119.214 495.911 111.599C495.327 108.605 495.034 105.493 495.935 102.53C496.922 99.2518 499.166 96.3605 501.749 94.1644C507.65 89.1638 515.613 87.7103 523.141 88.4371C526.949 88.8084 530.773 89.6378 534.359 90.965C537.724 92.2131 540.947 93.9985 543.538 96.5185C546.13 99.0385 547.781 101.914 548.444 105.303C548.768 106.93 548.634 108.605 549.021 110.217C549.408 111.828 550.727 112.934 552.062 113.89C552.37 114.111 552.678 114.324 552.979 114.553C553.144 114.68 553.69 115.004 553.737 115.193C553.974 116.181 555.491 115.762 555.262 114.775C555.072 113.985 554.108 113.424 553.492 112.981C552.876 112.539 552.212 112.105 551.644 111.575C551.075 111.046 550.664 110.422 550.498 109.632C550.324 108.787 550.324 107.957 550.253 107.104C549.992 103.668 548.744 100.405 546.643 97.6639C541.966 91.5812 534.327 88.6899 526.996 87.3943C519.097 86.004 510.731 86.5253 503.748 90.7912C500.612 92.7108 497.894 95.3177 496.006 98.4855C494.339 101.282 493.604 104.426 493.778 107.673C493.976 111.291 494.892 114.933 495.959 118.385C497.144 122.192 498.708 125.89 500.627 129.381C501.109 130.25 501.607 131.111 502.136 131.956C502.381 132.351 502.634 132.746 502.895 133.141C503.171 133.56 503.4 134.082 503.969 134.121C504.119 134.129 504.269 134.121 504.419 134.121L507.524 134.137L519.184 134.2C523.363 134.224 527.542 134.247 531.721 134.271L535.915 134.295H537.076C537.337 134.295 537.622 134.334 537.859 134.192C538.017 134.097 538.127 133.955 538.254 133.845C538.38 133.734 538.514 133.623 538.641 133.513C538.949 133.252 539.265 132.999 539.573 132.746C540.213 132.225 540.853 131.72 541.485 131.198C542.82 130.116 544.139 129.002 545.355 127.785C546.485 126.664 547.559 125.423 548.318 124.009C548.729 123.251 548.942 122.429 549.282 121.647C549.661 120.771 550.324 120.107 551.019 119.467C551.754 118.78 552.505 118.093 553.247 117.405C553.65 117.034 554.045 116.663 554.448 116.291C554.78 115.983 555.183 115.675 555.246 115.193C555.309 114.775 555.143 114.348 554.693 114.222C554.322 114.119 553.784 114.348 553.721 114.775L553.769 114.767Z" fill="black"/>
<path d="M464.233 133.465L485.531 249.583H537.637L577.136 133.465H464.233Z" stroke="black" stroke-width="1.57994" stroke-linecap="round" stroke-linejoin="round"/>
<path d="M532.384 127.628C533.443 126.474 535.283 126.04 536.768 125.795C538.451 125.518 540.181 125.629 541.824 126.055C542.812 126.308 543.23 124.784 542.243 124.531C540.307 124.033 538.317 123.946 536.342 124.27C534.58 124.562 532.503 125.155 531.262 126.506C530.575 127.256 531.689 128.378 532.376 127.62L532.384 127.628Z" fill="black"/>
<path d="M485.531 249.583L464.233 354.752L502.626 357.043L510.312 249.583H485.531Z" stroke="black" stroke-width="1.57994" stroke-linecap="round" stroke-linejoin="round"/>
<path d="M515.779 249.583L517.627 357.043H556.075L537.637 249.583H515.779Z" stroke="black" stroke-width="1.57994" stroke-linecap="round" stroke-linejoin="round"/>
<path d="M497.31 119.135C512.137 113.211 526.981 106.243 538.269 94.9386C540.094 93.1059 541.943 90.8308 541.666 88.2555C541.445 86.2252 539.928 84.5663 538.269 83.3655C533.024 79.5658 526.135 79.0444 519.658 79.076C514.934 79.0997 510.17 79.3604 505.628 80.6638C501.093 81.9673 496.764 84.4004 493.881 88.137C490.445 92.5845 489.354 98.5567 490.152 104.126C490.95 109.695 494.102 114.522 497.31 119.143V119.135Z" fill="black"/>
<path d="M497.515 119.894C506.521 116.291 515.455 112.365 523.726 107.254C527.826 104.718 531.752 101.89 535.386 98.7067C537.156 97.1505 538.98 95.5389 540.442 93.6825C541.903 91.8261 542.907 89.63 542.282 87.2917C541.69 85.0718 539.857 83.4287 538.001 82.2201C536.144 81.0114 533.901 80.0713 531.681 79.4789C527.06 78.2465 522.17 78.1912 517.422 78.3097C512.295 78.4361 507.066 78.9891 502.294 80.9877C498.076 82.7572 494.284 85.5932 491.946 89.5826C489.607 93.5719 488.778 98.4065 489.228 102.996C489.71 107.957 491.914 112.397 494.6 116.521C495.256 117.532 495.943 118.535 496.63 119.522C497.207 120.352 498.573 119.562 497.997 118.725C495.335 114.885 492.657 110.888 491.424 106.322C490.279 102.064 490.46 97.3559 491.977 93.2164C493.494 89.077 496.456 85.8934 500.217 83.7526C504.324 81.4143 509.025 80.4268 513.693 80.0634C516.19 79.8738 518.702 79.8264 521.206 79.8501C523.426 79.8738 525.654 79.9765 527.858 80.3004C530.062 80.6243 532.218 81.1378 534.256 81.9989C536.294 82.8599 538.167 83.958 539.565 85.5616C540.205 86.2884 540.718 87.1811 540.868 88.1448C541.026 89.1718 540.75 90.2066 540.276 91.1072C539.241 93.0663 537.503 94.6147 535.907 96.1077C532.558 99.2281 528.908 102.009 525.077 104.513C517.296 109.6 508.827 113.55 500.248 117.074C499.205 117.5 498.163 117.927 497.12 118.345C496.725 118.503 496.448 118.875 496.567 119.317C496.67 119.696 497.144 120.028 497.539 119.87L497.515 119.894Z" fill="black"/>
<path d="M261.883 384.802L304.304 383.656C306.99 383.585 309.044 381.176 308.633 378.522C307.859 373.458 303.98 366.743 288.252 369.476C287.186 369.658 286.095 369.413 285.155 368.568C283.646 367.217 284.294 362.92 285.993 356.165L267.657 354.751L261.875 384.802H261.883Z" stroke="black" stroke-width="1.57994" stroke-miterlimit="3"/>
<path d="M317.149 384.802L359.57 383.657C362.256 383.585 364.31 381.176 363.899 378.522C363.125 373.458 359.246 366.743 343.518 369.477C342.452 369.658 341.362 369.413 340.421 368.568C338.913 367.217 338.842 363.797 340.548 357.042H323.579L317.149 384.81V384.802Z" stroke="black" stroke-width="1.57994" stroke-miterlimit="3"/>
<path d="M257.957 212.794L216.436 290.417L231.042 293.861L267.041 250.681L257.957 212.794Z" stroke="black" stroke-width="1.57994" stroke-miterlimit="3"/>
<path d="M364.263 213.939L403.777 283.275L389.984 289.65L348.432 250.254L364.263 213.939Z" stroke="black" stroke-width="1.57994" stroke-miterlimit="3"/>
<path d="M227.835 293.324C228.143 296.349 227.653 299.351 226.595 302.195C226.066 303.617 225.394 304.984 224.612 306.279C224.256 306.872 223.869 307.519 223.245 307.875C223.008 308.009 222.74 308.112 222.463 308.088C222.116 308.064 222.005 307.883 221.926 307.567C221.492 305.805 222.013 303.893 222.44 302.179C222.684 301.192 221.223 300.789 220.915 301.76C220.607 302.732 220.275 303.664 219.912 304.596C219.738 305.039 219.572 305.489 219.367 305.916C219.28 306.105 219.169 306.24 219.051 306.405C218.972 306.516 218.932 306.398 218.972 306.469C218.972 306.453 218.987 306.082 218.995 305.995C219.058 305.56 219.216 305.134 219.335 304.715C219.604 303.743 219.88 302.772 220.149 301.8L218.624 301.381C218.442 302.179 218.205 302.961 217.874 303.704C217.708 304.075 217.518 304.446 217.321 304.802C217.249 304.936 217.028 305.45 216.878 305.465C216.467 305.521 216.625 304.067 216.649 303.83C216.728 303.016 216.926 302.219 217.194 301.444L215.67 301.026C215.18 302.535 214.334 304.146 213.118 305.205C213.047 305.236 213.055 305.252 213.157 305.252C213.086 305.221 213.031 305.173 212.984 305.102C212.865 304.968 212.81 304.786 212.762 304.62C212.636 304.194 212.636 303.751 212.676 303.317C212.747 302.456 212.992 301.595 213.213 300.765C213.679 298.94 214.382 297.313 215.472 295.765C216.562 294.216 217.81 292.707 218.987 291.199C219.248 290.859 219.311 290.409 218.987 290.085C218.711 289.808 218.134 289.745 217.874 290.085C215.67 292.913 213.134 295.646 212.036 299.122C211.767 299.983 211.546 300.86 211.356 301.745C211.167 302.629 211.017 303.475 211.119 304.344C211.214 305.149 211.491 305.987 212.178 306.484C212.905 307.022 213.734 306.832 214.35 306.24C215.693 304.936 216.649 303.23 217.218 301.46C217.534 300.489 216.017 300.086 215.693 301.042C215.164 302.598 214.105 306.65 216.665 307.037C217.858 307.219 218.498 306.042 218.956 305.149C219.501 304.091 219.904 302.969 220.172 301.816C220.401 300.828 218.924 300.41 218.648 301.397C218.284 302.708 217.874 304.012 217.55 305.339C217.313 306.295 217.368 307.606 218.49 307.97C219.841 308.404 220.591 307.109 221.026 306.074C221.563 304.802 222.029 303.506 222.455 302.195L220.931 301.776C220.465 303.672 220.03 305.616 220.338 307.575C220.48 308.475 220.883 309.297 221.815 309.581C222.669 309.842 223.609 309.597 224.32 309.083C225.031 308.57 225.568 307.796 226.034 307.022C226.5 306.247 226.911 305.465 227.282 304.66C228.056 303.001 228.672 301.271 229.052 299.477C229.478 297.463 229.628 295.393 229.423 293.347C229.383 292.921 229.091 292.557 228.633 292.557C228.238 292.557 227.803 292.921 227.843 293.347L227.835 293.324Z" fill="black"/>
<path d="M401.81 285.25C403.777 287.659 405.002 290.59 405.705 293.6C406.06 295.125 406.289 296.673 406.376 298.229C406.423 299.011 406.463 299.888 406.068 300.591C405.95 300.812 405.72 301.152 405.452 301.2C405.183 301.247 404.978 300.955 404.812 300.765C403.643 299.493 403.05 297.779 402.474 296.183C402.134 295.243 400.665 295.614 400.949 296.602C401.233 297.589 401.478 298.529 401.699 299.501C401.81 299.991 401.921 300.481 402.015 300.97C402.055 301.168 402.102 301.373 402.094 301.579C402.094 301.602 402 301.934 402 301.942C402.008 301.974 402.126 301.926 402.126 301.934C402.126 301.934 401.889 301.571 401.873 301.547C401.684 301.152 401.581 300.71 401.439 300.291C401.115 299.304 400.791 298.308 400.459 297.321L398.935 297.739C399.258 298.601 399.511 299.477 399.677 300.386C399.748 300.805 399.804 301.215 399.835 301.642C399.835 301.737 399.914 302.408 399.835 302.448C399.48 302.621 398.982 301.523 398.871 301.302C398.468 300.544 398.168 299.746 397.947 298.917L396.422 299.335C396.841 300.781 396.991 302.266 396.857 303.767C396.841 303.917 396.857 304.596 396.715 304.691C396.77 304.66 396.478 304.573 396.415 304.533C395.917 304.249 395.593 303.688 395.348 303.19C394.7 301.926 394.25 300.496 393.887 299.122C393.484 297.589 393.397 296.033 393.436 294.453C393.476 292.613 393.586 290.764 393.665 288.923C393.713 287.904 392.133 287.912 392.086 288.923C391.92 292.755 391.446 296.681 392.623 300.402C393.105 301.934 393.61 303.672 394.613 304.952C395.08 305.552 395.704 306.082 396.478 306.184C397.339 306.303 398.066 305.805 398.287 304.96C398.524 304.036 398.532 302.985 398.484 302.037C398.429 300.978 398.255 299.92 397.963 298.901C397.671 297.882 396.17 298.332 396.438 299.319C396.746 300.457 397.197 301.579 397.813 302.59C398.35 303.467 399.243 304.304 400.356 303.925C401.573 303.514 401.502 302.108 401.383 301.073C401.233 299.778 400.941 298.522 400.483 297.305C400.127 296.373 398.634 296.744 398.958 297.724C399.401 299.067 399.796 300.425 400.285 301.753C400.641 302.716 401.447 303.885 402.64 303.38C403.943 302.835 403.714 301.263 403.485 300.157C403.208 298.814 402.877 297.479 402.489 296.16L400.965 296.578C401.597 298.332 402.252 300.109 403.453 301.563C404.054 302.29 404.836 302.969 405.847 302.708C406.755 302.479 407.371 301.666 407.695 300.828C408.059 299.888 408.019 298.838 407.948 297.85C407.877 296.863 407.758 295.923 407.6 294.959C407.3 293.118 406.818 291.301 406.123 289.563C405.333 287.58 404.291 285.748 402.94 284.097C402.3 283.307 401.186 284.428 401.826 285.211L401.81 285.25Z" fill="black"/>
<path d="M315.617 189.806C315.617 189.806 324.685 179.118 334.908 187.847C334.908 187.847 327.885 199.38 315.617 189.806Z" stroke="black" stroke-width="1.57994" stroke-linejoin="round"/>
<path d="M325.508 193.027C327.168 192.937 328.414 191.044 328.292 188.801C328.169 186.557 326.725 184.812 325.065 184.902C323.405 184.993 322.159 186.885 322.281 189.128C322.403 191.372 323.848 193.117 325.508 193.027Z" fill="black"/>
<path d="M344.83 191.489C344.83 191.489 344.853 191.481 344.79 191.56C344.711 191.655 344.6 191.741 344.506 191.82C344.316 191.994 344.126 192.168 343.937 192.342C343.558 192.689 343.186 193.037 342.807 193.393C342.088 194.064 341.346 194.72 340.643 195.407C339.995 196.039 339.402 196.734 339.023 197.564C338.676 198.322 338.478 199.128 338.091 199.87C336.661 202.58 334.094 204.642 331.763 206.553C331.084 207.106 330.397 207.651 329.717 208.204C329.109 208.694 328.335 209.184 327.877 209.824L328.556 209.429C324.772 209.405 320.988 209.389 317.196 209.366C311.201 209.334 305.205 209.302 299.209 209.271C297.826 209.271 296.444 209.255 295.054 209.247L295.733 209.642C291.404 203.196 288.465 195.936 286.972 188.321C286.388 185.327 286.095 182.214 286.996 179.252C287.983 175.974 290.227 173.082 292.81 170.886C298.711 165.886 306.674 164.432 314.202 165.159C318.01 165.53 321.834 166.36 325.42 167.687C328.785 168.935 332.008 170.72 334.599 173.24C337.191 175.76 338.842 178.636 339.505 182.025C339.829 183.652 339.695 185.327 340.082 186.938C340.469 188.55 341.788 189.656 343.123 190.612C343.431 190.833 343.739 191.046 344.04 191.275C344.205 191.402 344.751 191.726 344.798 191.915C345.035 192.903 346.552 192.484 346.323 191.497C346.133 190.707 345.169 190.146 344.553 189.703C343.937 189.261 343.273 188.826 342.705 188.297C342.136 187.768 341.725 187.144 341.559 186.354C341.385 185.509 341.385 184.679 341.314 183.826C341.053 180.39 339.805 177.127 337.704 174.386C333.027 168.303 325.388 165.412 318.057 164.116C310.158 162.726 301.792 163.247 294.809 167.513C291.672 169.433 288.955 172.04 287.067 175.207C285.4 178.004 284.665 181.148 284.839 184.395C285.037 188.013 285.953 191.655 287.02 195.107C288.204 198.914 289.769 202.611 291.688 206.103C292.17 206.972 292.668 207.833 293.197 208.678C293.442 209.073 293.695 209.468 293.955 209.863C294.232 210.282 294.461 210.803 295.03 210.843C295.18 210.851 295.33 210.843 295.48 210.843L298.585 210.859C302.471 210.882 306.358 210.898 310.245 210.922C314.424 210.946 318.603 210.969 322.781 210.993L326.976 211.017H328.137C328.398 211.017 328.683 211.056 328.92 210.914C329.078 210.819 329.188 210.677 329.315 210.566C329.441 210.456 329.575 210.345 329.702 210.235C330.01 209.974 330.326 209.721 330.634 209.468C331.274 208.947 331.914 208.441 332.545 207.92C333.881 206.838 335.2 205.724 336.416 204.507C337.546 203.386 338.62 202.145 339.379 200.731C339.79 199.973 340.003 199.151 340.342 198.369C340.722 197.492 341.385 196.829 342.08 196.189C342.815 195.502 343.566 194.814 344.308 194.127C344.711 193.756 345.106 193.385 345.509 193.013C345.841 192.705 346.244 192.397 346.307 191.915C346.37 191.497 346.204 191.07 345.754 190.944C345.382 190.841 344.845 191.07 344.782 191.497L344.83 191.489Z" fill="black"/>
<path d="M329.765 168.769C320.42 183.455 305.015 194.949 287.62 194.167C287.288 193.061 286.988 191.939 286.727 190.817C285.155 184.008 284.76 179.22 289.303 173.406C292.692 169.061 297.89 166.194 303.151 164.977C308.412 163.753 313.752 164.061 318.792 165.04C322.647 165.799 326.431 166.968 329.765 168.777V168.769Z" fill="black"/>
<path d="M329.085 168.374C325.483 174.022 321.028 179.149 315.798 183.36C310.569 187.57 304.865 190.628 298.537 192.239C294.967 193.148 291.293 193.535 287.62 193.377L288.378 193.953C287.746 191.828 287.225 189.664 286.838 187.476C286.53 185.738 286.356 183.968 286.475 182.199C286.727 178.509 288.6 175.16 291.104 172.514C293.837 169.622 297.392 167.553 301.168 166.336C305.552 164.922 310.221 164.701 314.779 165.206C319.795 165.759 324.899 167.047 329.362 169.448C330.255 169.93 331.053 168.564 330.16 168.082C325.981 165.838 321.32 164.551 316.643 163.863C311.967 163.176 306.793 163.152 302.029 164.432C297.969 165.522 294.098 167.529 291.001 170.389C288.086 173.082 285.7 176.685 285.068 180.658C284.737 182.728 284.847 184.798 285.147 186.859C285.519 189.395 286.119 191.915 286.854 194.372C286.956 194.72 287.264 194.933 287.612 194.949C294.382 195.241 301.081 193.669 307.156 190.722C313.231 187.776 318.729 183.439 323.327 178.438C325.965 175.563 328.343 172.45 330.444 169.156C330.989 168.295 329.623 167.505 329.078 168.358L329.085 168.374Z" fill="black"/>
<path d="M257.443 210.195L277.935 296.61H328.051L366.04 210.195H257.443Z" stroke="black" stroke-width="1.57994" stroke-linecap="round" stroke-linejoin="round"/>
<path d="M277.935 296.61L261.883 354.309L297.4 357.043L304.573 320.175L315.616 357.043H348.282L328.051 296.61H277.935Z" stroke="black" stroke-width="1.57994" stroke-linecap="round" stroke-linejoin="round"/>
<path d="M332.585 201.103C329.417 201.932 326.163 202.256 322.9 202.082C321.881 202.027 321.889 203.607 322.9 203.662C326.297 203.844 329.717 203.496 333.004 202.627C333.983 202.367 333.573 200.842 332.585 201.103Z" fill="black"/>
<path d="M807.712 354.799C804.536 362.391 808.66 363.694 811.464 365.211C813.21 366.159 815.248 366.435 817.231 366.23C862.433 361.49 855.047 382.037 855.047 382.037L781.209 383.459L785.467 354.586L807.712 354.799Z" stroke="black" stroke-width="1.57994" stroke-miterlimit="3"/>
<path d="M709.922 355.929L706.414 384.802L767.202 383.38C767.202 383.38 773.285 362.833 736.07 367.573C734.442 367.778 732.76 367.502 731.322 366.554C729.015 365.037 733.415 360.961 736.03 353.361L710.506 351.663L709.922 355.921V355.929Z" stroke="black" stroke-width="1.57994" stroke-miterlimit="3"/>
<path d="M714.78 81.9436L659.411 199.799L678.639 204.966L723.73 143.214L714.78 81.9436Z" stroke="black" stroke-width="1.57994" stroke-miterlimit="3"/>
<path d="M839.753 83.0496L913.529 190.027L889.379 199.997L825.668 129.705L839.753 83.0496Z" fill="black" stroke="black" stroke-width="1.57994" stroke-miterlimit="3"/>
<path d="M675.013 204.966C675.424 210.092 674.776 215.235 673.323 220.157C672.619 222.527 671.743 224.857 670.676 227.093C670.194 228.112 669.633 229.352 668.63 229.96C668.267 230.181 667.801 230.339 667.398 230.15C666.932 229.936 666.845 229.304 666.766 228.862C666.229 225.821 666.876 222.653 667.453 219.659C667.643 218.672 666.181 218.245 665.928 219.24C665.51 220.915 665.052 222.574 664.538 224.217C664.301 224.975 664.08 225.75 663.795 226.492C663.701 226.753 663.59 227.029 663.416 227.251C663.353 227.337 663.203 227.511 663.077 227.503C663.148 227.503 663.108 227.503 663.077 227.472C662.792 227.219 662.903 226.476 662.934 226.16C662.998 225.473 663.195 224.794 663.345 224.122C663.716 222.424 664.088 220.733 664.459 219.035L662.934 218.616C662.69 219.999 662.35 221.357 661.892 222.677C661.678 223.301 661.441 223.909 661.173 224.509C661.039 224.81 660.746 225.758 660.375 225.86C660.446 225.837 660.375 225.86 660.312 225.821C660.209 225.75 660.122 225.615 660.067 225.513C659.933 225.276 659.869 224.991 659.838 224.723C659.751 224.075 659.806 223.388 659.846 222.74C659.948 221.286 660.201 219.856 660.572 218.45L659.048 218.032C658.503 220.204 657.657 222.282 656.433 224.154C656.18 224.541 655.927 224.952 655.611 225.291C655.572 225.331 655.39 225.457 655.446 225.473C655.43 225.473 655.414 225.442 655.406 225.442C655.232 225.378 655.09 225.054 655.019 224.912C654.545 223.948 654.553 222.748 654.624 221.705C654.703 220.512 654.94 219.343 655.161 218.174C655.382 217.005 655.643 215.733 655.967 214.532C656.575 212.265 657.523 210.171 658.692 208.141C660.098 205.692 661.615 203.307 663.092 200.897C663.622 200.028 662.255 199.23 661.726 200.099C658.866 204.776 655.619 209.35 654.284 214.745C653.945 216.104 653.684 217.479 653.431 218.853C653.194 220.141 652.981 221.46 653.012 222.771C653.044 223.996 653.249 225.355 654.047 226.326C654.387 226.737 654.877 227.069 655.43 227.069C656.156 227.069 656.638 226.54 657.049 226.01C658.748 223.791 659.885 221.176 660.565 218.474C660.809 217.487 659.308 217.068 659.04 218.055C658.558 219.833 658.282 221.665 658.21 223.506C658.163 224.92 658.368 227.132 660.114 227.44C661.86 227.748 662.532 225.386 663.006 224.193C663.661 222.534 664.127 220.812 664.443 219.066C664.617 218.079 663.14 217.645 662.919 218.648C662.571 220.251 662.216 221.847 661.868 223.451C661.591 224.731 661.157 226.081 661.378 227.401C661.599 228.72 662.824 229.597 664.048 228.823C665.273 228.048 665.549 226.287 665.936 225.047C666.489 223.285 666.987 221.5 667.437 219.706L665.913 219.288C665.328 222.305 664.736 225.41 665.107 228.491C665.273 229.842 665.589 231.351 667.098 231.769C668.401 232.133 669.712 231.382 670.534 230.403C671.411 229.36 671.972 228.096 672.525 226.856C673.078 225.615 673.607 224.288 674.073 222.969C675.013 220.291 675.724 217.534 676.158 214.737C676.664 211.522 676.83 208.268 676.569 205.021C676.49 204.018 674.91 204.002 674.989 205.021L675.013 204.966Z" fill="black"/>
<path d="M909.136 192.776C912.28 196.608 914.232 201.3 915.33 206.095C915.891 208.552 916.254 211.072 916.357 213.592C916.404 214.809 916.357 216.104 915.701 217.171C915.456 217.566 915.101 217.953 914.642 218.111C914.026 218.324 913.584 217.787 913.205 217.384C911.317 215.361 910.369 212.636 909.444 210.084C909.105 209.144 907.635 209.516 907.92 210.503C908.386 212.107 908.805 213.726 909.168 215.361C909.35 216.159 909.555 216.973 909.666 217.787C909.713 218.15 909.808 219.051 909.35 219.264C908.662 219.588 908.015 216.949 907.904 216.602C907.383 215.022 906.861 213.442 906.34 211.854L904.815 212.273C905.329 213.616 905.724 215.006 905.976 216.428C906.095 217.115 906.182 217.81 906.229 218.513C906.261 218.908 906.403 219.754 906.008 220.03C905.155 220.615 904.239 218.695 903.97 218.197C903.306 216.973 902.809 215.67 902.445 214.319L900.921 214.737C901.6 217.068 901.821 219.493 901.584 221.902C901.545 222.282 901.576 223.064 901.292 223.364C901.102 223.569 900.747 223.482 900.518 223.388C899.672 223.048 899.072 222.139 898.646 221.373C898.132 220.457 897.777 219.461 897.413 218.474C896.987 217.313 896.576 216.144 896.244 214.951C895.565 212.494 895.383 210.005 895.438 207.462C895.494 204.563 895.667 201.671 895.794 198.772C895.841 197.753 894.261 197.761 894.214 198.772C894.087 201.663 893.914 204.563 893.858 207.462C893.803 210.361 894.056 213.142 894.877 215.907C895.272 217.242 895.754 218.553 896.252 219.849C896.663 220.915 897.105 221.997 897.769 222.937C898.432 223.877 899.285 224.754 900.415 224.991C901.6 225.244 902.635 224.659 902.951 223.474C903.322 222.06 903.322 220.433 903.243 218.987C903.164 217.408 902.896 215.835 902.453 214.311C902.169 213.339 900.668 213.742 900.929 214.73C901.387 216.428 902.05 218.079 902.951 219.588C903.686 220.812 904.934 222.139 906.506 221.523C908.212 220.852 907.864 218.656 907.683 217.218C907.446 215.377 907.003 213.584 906.34 211.854C905.984 210.922 904.491 211.293 904.815 212.273C905.455 214.216 906.095 216.167 906.735 218.111C907.169 219.414 908.094 221.349 909.808 220.773C911.775 220.109 911.246 217.581 910.93 216.072C910.511 214.058 910.005 212.059 909.437 210.084L907.912 210.503C908.86 213.118 909.831 215.78 911.609 217.96C912.502 219.059 913.687 220.164 915.211 219.58C916.475 219.09 917.281 217.874 917.652 216.61C918.079 215.148 917.96 213.592 917.834 212.099C917.707 210.606 917.526 209.231 917.281 207.809C916.799 205.052 916.056 202.335 914.998 199.736C913.813 196.821 912.257 194.096 910.258 191.655C909.61 190.865 908.504 191.994 909.144 192.768L909.136 192.776Z" fill="black"/>
<path d="M731.433 196.663L700.363 351.228L756.364 354.586L767.574 196.663H731.433Z" stroke="black" stroke-width="1.57994" stroke-linecap="round" stroke-linejoin="round"/>
<path d="M775.545 196.663L778.246 354.586H834.326L807.436 196.663H775.545Z" fill="black" stroke="black" stroke-width="1.57994" stroke-linecap="round" stroke-linejoin="round"/>
<path d="M801.045 57.4705C801.045 57.4705 794.022 69.004 781.754 59.4296" stroke="black" stroke-width="1.57994" stroke-linecap="round" stroke-linejoin="round"/>
<path d="M810.959 61.1042C810.959 61.1042 810.983 61.0963 810.919 61.1753C810.84 61.2701 810.73 61.3569 810.635 61.4359C810.445 61.6097 810.256 61.7835 810.066 61.9573C809.687 62.3049 809.316 62.6525 808.937 63.008C808.218 63.6795 807.475 64.3351 806.772 65.0224C806.124 65.6544 805.532 66.3496 805.153 67.179C804.805 67.9374 804.608 68.7432 804.22 69.4857C802.791 72.1953 800.223 74.2571 797.893 76.1689C797.213 76.7219 796.526 77.2669 795.847 77.8199C795.239 78.3097 794.464 78.7995 794.006 79.4393L794.686 79.0444C790.902 79.0207 787.118 79.0049 783.326 78.9812C777.33 78.9496 771.334 78.918 765.338 78.8864C763.956 78.8864 762.573 78.8706 761.183 78.8627L761.862 79.2577C757.533 72.8115 754.595 65.5517 753.102 57.9364C752.517 54.9424 752.225 51.8299 753.125 48.8675C754.113 45.5892 756.356 42.6979 758.939 40.5018C764.84 35.5012 772.803 34.0477 780.332 34.7745C784.139 35.1458 787.963 35.9752 791.549 37.3024C794.915 38.5505 798.138 40.3359 800.729 42.8559C803.32 45.3759 804.971 48.2514 805.635 51.6403C805.958 53.2677 805.824 54.9424 806.211 56.5539C806.598 58.1655 807.918 59.2714 809.253 60.2273C809.561 60.4485 809.869 60.6618 810.169 60.8909C810.335 61.0173 810.88 61.3411 810.927 61.5307C811.164 62.5182 812.681 62.0995 812.452 61.1121C812.262 60.3221 811.299 59.7612 810.682 59.3188C810.066 58.8764 809.403 58.442 808.834 57.9127C808.265 57.3834 807.854 56.7593 807.688 55.9694C807.515 55.1241 807.515 54.2946 807.444 53.4415C807.183 50.0051 805.935 46.7425 803.833 44.0013C799.157 37.9186 791.518 35.0273 784.187 33.7317C776.287 32.3414 767.921 32.8627 760.938 37.1286C757.802 39.0482 755.084 41.6551 753.196 44.8229C751.53 47.6194 750.795 50.7635 750.969 54.0102C751.166 57.6283 752.083 61.2701 753.149 64.7222C754.334 68.5299 755.898 72.2269 757.818 75.7186C758.3 76.5876 758.797 77.4486 759.327 78.2939C759.571 78.6889 759.824 79.0839 760.085 79.4788C760.361 79.8975 760.59 80.4189 761.159 80.4584C761.309 80.4663 761.459 80.4584 761.61 80.4584L764.714 80.4742C768.601 80.4979 772.487 80.5137 776.374 80.5374C780.553 80.5611 784.732 80.5848 788.911 80.6085L793.106 80.6322H794.267C794.528 80.6322 794.812 80.6717 795.049 80.5295C795.207 80.4347 795.318 80.2925 795.444 80.1819C795.57 80.0713 795.705 79.9607 795.831 79.8501C796.139 79.5894 796.455 79.3367 796.763 79.0839C797.403 78.5625 798.043 78.0569 798.675 77.5355C800.01 76.4533 801.329 75.3394 802.546 74.1229C803.675 73.0011 804.75 71.7608 805.508 70.3468C805.919 69.5884 806.132 68.7669 806.472 67.9848C806.851 67.1079 807.515 66.4444 808.21 65.8045C808.945 65.1172 809.695 64.4299 810.438 63.7427C810.84 63.3714 811.235 63.0001 811.638 62.6288C811.97 62.3207 812.373 62.0126 812.436 61.5307C812.499 61.1121 812.333 60.6855 811.883 60.5591C811.512 60.4564 810.975 60.6855 810.912 61.1121L810.959 61.1042Z" fill="black"/>
<path d="M714.472 79.8108L731.433 195.92H807.436L840.678 79.8108H714.472Z" stroke="black" stroke-width="1.57994" stroke-linecap="round" stroke-linejoin="round"/>
<path d="M789.574 73.9649C790.633 72.8116 792.474 72.3771 793.959 72.1322C795.641 71.8557 797.371 71.9663 799.015 72.3929C800.002 72.6457 800.421 71.121 799.433 70.8682C797.498 70.3706 795.507 70.2837 793.532 70.6075C791.77 70.8998 789.693 71.4923 788.453 72.8432C787.765 73.5936 788.879 74.7154 789.566 73.957L789.574 73.9649Z" fill="black"/>
<path d="M803.889 79.8108L767.574 196.663L807.436 195.92L840.677 79.8108H803.889Z" fill="black" stroke="black" stroke-width="1.57994" stroke-linecap="round" stroke-linejoin="round"/>
<path d="M761.08 57.5336C764.99 58.4579 769.154 58.2446 772.945 57.4467C776.737 56.6489 780.237 55.298 783.697 53.9551C788.5 52.0907 793.39 50.1869 797.071 47.2403C799.315 45.4471 801.037 43.3221 802.538 41.1181C804.781 37.8081 806.535 34.2927 807.633 30.6194C807.902 29.7109 808.139 28.7629 807.902 27.815C807.443 25.9665 805.326 24.5208 803.107 23.5807C796.155 20.6421 787.892 21.274 780.395 22.301C776.334 22.854 772.274 23.5096 768.53 24.7183C758.513 27.9493 751.371 35.3513 750.25 43.6697C749.902 46.2213 750.1 48.8835 751.379 51.3561C752.659 53.8208 755.116 56.0722 758.331 57.1544L761.08 57.5415V57.5336Z" fill="black"/>
<path d="M760.875 58.2998C766.578 59.6269 772.479 58.6948 777.97 56.9016C780.648 56.0247 783.278 54.9819 785.901 53.9471C788.524 52.9122 790.909 51.9247 793.287 50.645C795.665 49.3652 797.845 47.8327 799.71 45.9131C801.574 43.9935 803.193 41.7183 804.576 39.3958C805.958 37.0733 807.199 34.4743 808.075 31.8358C808.526 30.4929 809.015 29.0393 808.66 27.6095C808.399 26.5351 807.665 25.6109 806.835 24.8999C804.86 23.2173 802.277 22.2772 799.797 21.6531C797.182 20.9895 794.472 20.7131 791.786 20.6657C786.296 20.5709 780.735 21.3371 775.339 22.2851C769.944 23.2331 765.101 24.6945 760.646 27.5463C756.996 29.8846 753.781 33.0208 751.711 36.8521C749.531 40.8731 748.433 46.0079 750.107 50.4001C750.953 52.6278 752.43 54.4921 754.326 55.9299C755.345 56.6962 756.475 57.2965 757.667 57.7468C758.22 57.9522 758.773 57.9996 759.358 58.0865L760.875 58.2998C761.293 58.3551 761.72 58.1971 761.846 57.7468C761.949 57.3755 761.72 56.8384 761.293 56.7752L759.777 56.5619C759.263 56.4908 758.726 56.4592 758.236 56.2854C756.198 55.5428 754.342 54.1999 753.022 52.4777C750.218 48.8044 750.502 43.8118 752.114 39.696C755.321 31.504 763.648 26.5983 771.832 24.6155C774.541 23.9598 777.29 23.5253 780.047 23.1462C782.559 22.7986 785.079 22.4984 787.607 22.3483C792.647 22.0402 797.861 22.293 802.585 24.2205C803.644 24.655 804.71 25.1922 805.603 25.919C806.393 26.5667 807.151 27.412 807.199 28.4785C807.262 29.7819 806.646 31.1959 806.203 32.3967C805.761 33.5975 805.247 34.7745 804.671 35.9279C802.403 40.4623 799.338 44.8624 795.08 47.7221C790.822 50.5818 785.885 52.3039 781.13 54.0972C776.05 56.0168 770.781 57.5809 765.291 57.3281C763.94 57.2649 762.605 57.0832 761.286 56.7752C760.298 56.5461 759.871 58.0707 760.867 58.2998H760.875Z" fill="black"/>
<path d="M1101.45 353.614C1098.14 361.506 1102.43 362.865 1105.35 364.437C1107.17 365.424 1109.28 365.717 1111.34 365.495C1158.33 360.566 1150.65 381.927 1150.65 381.927L1073.9 383.404L1078.33 353.393L1101.46 353.614H1101.45Z" stroke="black" stroke-width="1.57994" stroke-miterlimit="3"/>
<path d="M999.801 354.791L996.159 384.802L1059.35 383.325C1059.35 383.325 1065.67 361.964 1026.99 366.894C1025.3 367.107 1023.56 366.815 1022.05 365.835C1019.65 364.255 1024.23 360.021 1026.94 352.129L1000.41 350.367L999.801 354.799V354.791Z" stroke="black" stroke-width="1.57994" stroke-miterlimit="3"/>
<path d="M1004.85 69.9915L947.292 192.492L967.278 197.872L1014.15 133.679L1004.85 69.9915Z" fill="black" stroke="black" stroke-width="1.57994" stroke-miterlimit="3"/>
<path d="M1134.75 71.1448L1211.43 182.341L1186.34 192.705L1120.11 119.641L1134.75 71.1448Z" fill="black" stroke="black" stroke-width="1.57994" stroke-miterlimit="3"/>
<path d="M963.542 197.872C963.976 203.236 963.289 208.631 961.756 213.782C961.014 216.27 960.089 218.711 958.96 221.049C958.454 222.092 957.862 223.34 956.811 223.933C956.44 224.146 955.958 224.272 955.555 224.059C955.089 223.806 955.002 223.19 954.915 222.716C954.362 219.548 955.034 216.246 955.634 213.134C955.824 212.146 954.362 211.72 954.109 212.715C953.683 214.421 953.209 216.12 952.687 217.81C952.45 218.577 952.213 219.343 951.953 220.093C951.834 220.417 951.708 220.781 951.494 221.049C951.431 221.128 951.281 221.31 951.163 221.31C951.107 221.31 951.186 221.349 951.099 221.278C950.799 221.041 950.902 220.228 950.934 219.92C950.997 219.209 951.202 218.498 951.352 217.803C951.739 216.025 952.126 214.256 952.521 212.478L950.997 212.059C950.744 213.489 950.396 214.895 949.922 216.27C949.693 216.926 949.448 217.581 949.164 218.213C949.022 218.521 948.706 219.548 948.311 219.612C948.366 219.604 948.287 219.612 948.208 219.54C948.121 219.454 948.058 219.375 947.995 219.28C947.837 219.027 947.766 218.703 947.726 218.403C947.632 217.708 947.695 216.973 947.742 216.27C947.853 214.777 948.106 213.308 948.501 211.87L946.976 211.451C946.423 213.671 945.562 215.804 944.314 217.731C944.037 218.158 943.761 218.593 943.429 218.972C943.374 219.035 943.263 219.201 943.168 219.217C943.184 219.217 943.231 219.209 943.184 219.193C943.018 219.145 942.844 218.798 942.773 218.672C942.236 217.668 942.252 216.357 942.323 215.251C942.402 214.027 942.647 212.818 942.876 211.617C943.105 210.416 943.366 209.144 943.69 207.928C944.322 205.526 945.317 203.299 946.549 201.15C948.011 198.598 949.599 196.11 951.131 193.598C951.66 192.729 950.294 191.931 949.764 192.8C948.232 195.312 946.644 197.801 945.183 200.352C943.721 202.904 942.678 205.376 941.999 208.133C941.659 209.508 941.399 210.89 941.146 212.281C940.893 213.671 940.672 215.03 940.711 216.412C940.751 217.684 940.972 219.169 941.873 220.133C942.244 220.536 942.757 220.812 943.318 220.773C944.006 220.725 944.456 220.212 944.851 219.698C946.613 217.4 947.797 214.674 948.501 211.878C948.745 210.89 947.244 210.472 946.976 211.459C946.494 213.244 946.21 215.085 946.123 216.934C946.06 218.411 946.194 220.86 948.074 221.184C949.828 221.476 950.57 219.019 951.052 217.787C951.724 216.08 952.205 214.303 952.521 212.502C952.695 211.514 951.218 211.08 950.997 212.083C950.633 213.734 950.278 215.377 949.915 217.028C949.622 218.363 949.172 219.777 949.393 221.152C949.614 222.527 950.87 223.419 952.126 222.621C952.782 222.203 953.13 221.484 953.39 220.781C953.675 220.038 953.896 219.28 954.133 218.521C954.686 216.752 955.184 214.959 955.634 213.158L954.109 212.739C953.509 215.843 952.893 219.043 953.264 222.218C953.422 223.585 953.706 225.133 955.192 225.631C956.511 226.074 957.877 225.355 958.746 224.383C959.718 223.301 960.318 221.934 960.903 220.615C961.488 219.296 962.033 217.937 962.515 216.57C963.494 213.782 964.237 210.906 964.695 207.983C965.216 204.65 965.39 201.268 965.121 197.895C965.042 196.892 963.463 196.876 963.542 197.895V197.872Z" fill="black"/>
<path d="M1206.89 185.177C1210.19 189.19 1212.22 194.104 1213.35 199.128C1213.93 201.703 1214.32 204.35 1214.4 206.988C1214.44 208.244 1214.36 209.563 1213.67 210.646C1213.4 211.064 1213.01 211.459 1212.52 211.594C1211.91 211.759 1211.46 211.214 1211.08 210.811C1209.11 208.702 1208.12 205.858 1207.15 203.196C1206.81 202.256 1205.34 202.627 1205.63 203.615C1206.1 205.258 1206.54 206.909 1206.91 208.584C1207.09 209.382 1207.27 210.187 1207.41 211.001C1207.49 211.443 1207.65 212.494 1207.1 212.763C1206.35 213.118 1205.68 210.385 1205.56 210.014C1205.02 208.355 1204.47 206.696 1203.93 205.045L1202.4 205.463C1202.93 206.846 1203.34 208.276 1203.6 209.729C1203.73 210.472 1203.82 211.214 1203.87 211.965C1203.91 212.391 1204.04 213.181 1203.68 213.513C1203.34 213.821 1202.83 213.529 1202.56 213.276C1202.1 212.834 1201.78 212.226 1201.47 211.657C1200.78 210.369 1200.26 209.01 1199.88 207.596L1198.35 208.015C1199.08 210.503 1199.31 213.102 1199.02 215.678C1198.98 216.041 1199 216.792 1198.7 217.06C1198.45 217.289 1197.96 217.092 1197.7 216.957C1196.87 216.491 1196.3 215.638 1195.86 214.817C1195.33 213.853 1194.96 212.81 1194.58 211.783C1194.14 210.582 1193.72 209.374 1193.38 208.141C1192.7 205.645 1192.53 203.117 1192.58 200.542C1192.63 197.508 1192.81 194.475 1192.95 191.449C1193 190.43 1191.42 190.438 1191.37 191.449C1191.23 194.483 1191.05 197.508 1191 200.542C1190.94 203.575 1191.19 206.293 1192.01 209.089C1192.41 210.472 1192.91 211.831 1193.41 213.174C1193.83 214.279 1194.28 215.401 1194.95 216.381C1195.61 217.36 1196.42 218.229 1197.52 218.585C1198.72 218.972 1199.94 218.49 1200.33 217.25C1200.57 216.523 1200.6 215.693 1200.66 214.935C1200.71 214.137 1200.72 213.331 1200.69 212.526C1200.61 210.859 1200.33 209.192 1199.87 207.588C1199.58 206.617 1198.08 207.02 1198.34 208.007C1198.82 209.769 1199.51 211.483 1200.45 213.047C1201.23 214.366 1202.64 215.796 1204.3 214.967C1205.96 214.137 1205.49 211.925 1205.3 210.495C1205.05 208.623 1204.59 206.791 1203.91 205.029C1203.56 204.097 1202.06 204.468 1202.39 205.448C1202.9 207.012 1203.42 208.576 1203.93 210.14C1204.33 211.364 1204.63 212.905 1205.64 213.813C1206.64 214.722 1208.15 214.374 1208.74 213.142C1209.42 211.72 1208.81 209.974 1208.5 208.536C1208.1 206.743 1207.64 204.966 1207.13 203.196L1205.6 203.615C1206.59 206.34 1207.6 209.121 1209.46 211.38C1210.38 212.502 1211.58 213.624 1213.15 213.023C1214.45 212.518 1215.29 211.254 1215.67 209.95C1216.1 208.449 1215.98 206.838 1215.86 205.305C1215.73 203.773 1215.54 202.319 1215.28 200.842C1214.78 197.967 1214 195.131 1212.9 192.429C1211.67 189.403 1210.06 186.575 1207.98 184.047C1207.33 183.257 1206.23 184.387 1206.87 185.161L1206.89 185.177Z" fill="black"/>
<path d="M1022.16 189.237L989.863 349.901L1048.08 353.393L1059.72 189.237H1022.16Z" fill="black" stroke="black" stroke-width="1.57994" stroke-linecap="round" stroke-linejoin="round"/>
<path d="M1068.01 189.237L1070.81 353.393H1129.1L1101.15 189.237H1068.01Z" fill="black" stroke="black" stroke-width="1.57994" stroke-linecap="round" stroke-linejoin="round"/>
<path d="M1076.77 48.2435C1076.77 48.2435 1084.07 36.2597 1096.83 46.2133" stroke="black" stroke-width="1.57994" stroke-linecap="round" stroke-linejoin="round"/>
<path d="M1104.85 48.3385C1104.85 48.3385 1104.85 48.3543 1104.8 48.4254C1104.73 48.5202 1104.61 48.6071 1104.52 48.6861C1104.33 48.8599 1104.14 49.0337 1103.95 49.2075C1103.52 49.6025 1103.11 49.9895 1102.68 50.3845C1101.94 51.0718 1101.19 51.7433 1100.47 52.4463C1099.8 53.1099 1099.18 53.8367 1098.8 54.7057C1098.47 55.4482 1098.27 56.2382 1097.9 56.965C1096.43 59.8247 1093.74 61.9892 1091.3 63.9878C1090.58 64.5724 1089.85 65.1569 1089.13 65.7336C1088.51 66.2392 1087.7 66.7448 1087.24 67.4005L1087.91 67.0055C1086.77 67.0055 1085.62 66.9897 1084.47 66.9897C1081.7 66.9739 1078.92 66.9581 1076.14 66.9423L1066.11 66.887C1063.2 66.8712 1060.3 66.8554 1057.39 66.8396L1054.53 66.8238C1054.09 66.8238 1053.61 66.7685 1053.16 66.8238C1053.14 66.8238 1053.12 66.8238 1053.1 66.8238L1053.78 67.2188C1049.28 60.5198 1046.23 52.9756 1044.68 45.0601C1044.07 41.9476 1043.77 38.7246 1044.68 35.6437C1045.68 32.2626 1047.97 29.2765 1050.62 27.0014C1056.77 21.7244 1065.1 20.1682 1072.98 20.9266C1076.95 21.3057 1080.92 22.1747 1084.66 23.5572C1088.16 24.8527 1091.51 26.7091 1094.2 29.3081C1096.9 31.9071 1098.62 34.8932 1099.33 38.4007C1099.68 40.1149 1099.53 41.8844 1099.95 43.5908C1100.36 45.2971 1101.73 46.4189 1103.12 47.4063C1103.43 47.6275 1103.74 47.8408 1104.04 48.0699C1104.17 48.1726 1104.3 48.2753 1104.42 48.378C1104.5 48.4412 1104.83 48.6624 1104.85 48.7651C1105.09 49.7525 1106.61 49.3339 1106.38 48.3464C1106.18 47.5248 1105.14 46.9245 1104.5 46.4584C1103.86 45.9923 1103.19 45.5578 1102.61 45.0206C1102.02 44.4834 1101.6 43.8278 1101.43 43.0062C1101.24 42.0977 1101.25 41.1972 1101.17 40.2729C1100.88 36.7022 1099.56 33.3291 1097.37 30.4931C1092.49 24.1733 1084.49 21.203 1076.87 19.8759C1068.66 18.454 1059.98 19.0385 1052.75 23.5019C1049.51 25.5084 1046.71 28.2259 1044.77 31.5279C1043.07 34.435 1042.34 37.6897 1042.54 41.0471C1042.76 44.831 1043.72 48.6387 1044.85 52.2409C1046.09 56.175 1047.72 59.9984 1049.71 63.6086C1050.21 64.5013 1050.72 65.386 1051.26 66.2471C1051.52 66.6658 1051.79 67.0845 1052.07 67.5032C1052.34 67.9218 1052.55 68.3642 1053.09 68.4037C1053.25 68.4116 1053.42 68.4037 1053.57 68.4037L1056.81 68.4195C1060.87 68.4432 1064.91 68.4669 1068.96 68.4827C1073.29 68.5064 1077.62 68.5301 1081.95 68.5538L1086.32 68.5775H1087.5C1087.81 68.5854 1088.1 68.617 1088.37 68.4195C1088.94 67.9771 1089.53 67.4242 1090.12 66.9423C1090.8 66.3893 1091.48 65.8442 1092.16 65.2991C1093.53 64.1774 1094.9 63.0319 1096.15 61.7759C1097.3 60.6146 1098.41 59.3349 1099.18 57.8813C1099.6 57.0914 1099.81 56.2382 1100.17 55.4324C1100.57 54.5556 1101.23 53.8841 1101.92 53.2284C1102.7 52.5016 1103.48 51.7749 1104.27 51.0481C1104.67 50.6768 1105.06 50.3055 1105.47 49.9342C1105.82 49.6024 1106.27 49.2707 1106.35 48.7572C1106.42 48.3385 1106.25 47.9119 1105.8 47.7855C1105.43 47.6828 1104.89 47.9119 1104.83 48.3385H1104.85Z" fill="black"/>
<path d="M1004.53 67.7717L1022.16 188.463H1101.15L1135.72 67.7717H1004.53Z" fill="black" stroke="black" stroke-width="1.57994" stroke-linecap="round" stroke-linejoin="round"/>
<path d="M1092.07 57.1071C1090.96 58.3158 1089 58.774 1087.45 59.0267C1085.71 59.3032 1083.92 59.1847 1082.23 58.7503C1081.24 58.4975 1080.82 60.0221 1081.81 60.2749C1083.79 60.7884 1085.84 60.8753 1087.87 60.5514C1089.71 60.2591 1091.89 59.6429 1093.19 58.221C1093.88 57.4705 1092.76 56.3487 1092.08 57.1071H1092.07Z" fill="black"/>
<path d="M1050.76 44.3175C1055 45.376 1059.53 45.0522 1063.67 44.0489C1067.81 43.0456 1071.63 41.3788 1075.42 39.7278C1080.66 37.4369 1086.01 35.0906 1090.06 31.5279C1092.51 29.3555 1094.42 26.796 1096.08 24.1417C1098.57 20.1602 1100.52 15.926 1101.77 11.5259C1102.08 10.4357 1102.35 9.29815 1102.1 8.16849C1101.64 5.97237 1099.35 4.26604 1096.94 3.17588C1089.42 -0.244685 1080.43 0.632182 1072.26 1.95933C1067.84 2.6782 1063.42 3.50767 1059.33 5.00861C1048.38 9.00586 1040.52 17.9404 1039.18 27.9019C1038.77 30.9512 1038.95 34.1348 1040.3 37.0656C1041.66 39.9964 1044.3 42.6428 1047.78 43.8909L1050.76 44.3096V44.3175Z" fill="black"/>
<path d="M1050.55 45.0837C1056.92 46.6399 1063.51 45.3049 1069.53 43.0219C1072.47 41.908 1075.35 40.6283 1078.22 39.3485C1081.1 38.0688 1083.75 36.8127 1086.33 35.217C1088.92 33.6212 1091.23 31.7332 1093.2 29.4423C1095.17 27.1514 1096.86 24.5366 1098.33 21.8665C1099.8 19.1964 1101.12 16.1945 1102.09 13.1847C1102.58 11.6443 1103.15 9.97746 1102.92 8.33432C1102.73 7.04667 1102.03 5.91702 1101.12 5.00855C1099.12 3.00993 1096.28 1.88027 1093.6 1.1377C1090.76 0.347731 1087.79 0.0317433 1084.84 0.00804421C1081.89 -0.0156549 1078.8 0.252935 1075.8 0.647919C1072.64 1.0666 1069.49 1.58798 1066.37 2.24366C1060.72 3.43651 1055.25 5.36404 1050.53 8.76881C1046.5 11.6838 1043.04 15.4756 1040.83 19.9627C1038.62 24.4497 1037.32 30.4061 1038.87 35.5172C1039.65 38.1004 1041.17 40.4387 1043.24 42.1687C1044.28 43.0298 1045.41 43.7566 1046.65 44.2937C1047.02 44.4517 1047.38 44.6334 1047.78 44.6887L1048.82 44.8388C1049.4 44.9178 1049.97 45.0047 1050.55 45.0837C1050.97 45.1469 1051.39 44.981 1051.52 44.5307C1051.62 44.1594 1051.39 43.6223 1050.97 43.5591C1049.79 43.3932 1048.49 43.3774 1047.4 42.9113C1045.15 41.9633 1043.19 40.3123 1041.86 38.2742C1038.97 33.8503 1039.39 28.0994 1041.11 23.3121C1042.66 18.9752 1045.45 15.1597 1048.87 12.1104C1052.74 8.66611 1057.39 6.3041 1062.34 4.86636C1065.35 3.98949 1068.44 3.40491 1071.53 2.89143C1074.37 2.41745 1077.22 1.99877 1080.09 1.76968C1085.67 1.32729 1091.6 1.54059 1096.75 3.97369C1098.83 4.95325 1101.45 6.61219 1101.39 9.21119C1101.36 10.6963 1100.75 12.2289 1100.28 13.6192C1099.8 15.0096 1099.24 16.4078 1098.63 17.7587C1096.22 23.012 1092.99 28.2495 1088.4 31.8754C1083.81 35.5014 1078.33 37.6343 1073.09 39.8857C1067.49 42.2951 1061.6 44.3964 1055.41 44.1673C1053.91 44.112 1052.43 43.9145 1050.97 43.5591C1049.98 43.3221 1049.56 44.8388 1050.55 45.0837Z" fill="black"/>
</g>
<defs>
<clipPath id="clip0_1_18">
<rect width="1216" height="385.624" fill="white"/>
</clipPath>
</defs>
</svg>
