<svg width="32" height="32" viewBox="0 0 32 32" fill="none" xmlns="http://www.w3.org/2000/svg">
<g clip-path="url(#clip0_1_4)">
<mask id="mask0_1_4" style="mask-type:luminance" maskUnits="userSpaceOnUse" x="0" y="0" width="33" height="32">
<path d="M32.5 0H0.5V32H32.5V0Z" fill="white"/>
</mask>
<g mask="url(#mask0_1_4)">
<path d="M9.27336 8.13324C9.27336 8.85324 9.63336 8.83991 10.1533 8.13324C10.0687 6.98368 10.0687 5.82946 10.1533 4.67991C10.1533 4.20283 10.2002 3.18718 10.2318 2.50184C10.2479 2.15288 10.26 1.88955 10.26 1.82657C10.7606 1.38041 12.4957 1.44937 13.8778 1.5043C14.1892 1.51667 14.4826 1.52834 14.74 1.53324C14.7528 1.5858 14.7624 1.62105 14.7698 1.64771C14.7773 1.67484 14.7823 1.69308 14.7856 1.71163C14.7923 1.74966 14.7918 1.78899 14.7902 1.90898C14.7869 2.15423 14.7792 2.73643 14.82 4.33324C14.8045 4.47504 14.8045 4.61811 14.82 4.75991C14.4009 4.86284 13.6332 4.85225 12.9013 4.84216C12.3059 4.83396 11.7343 4.82608 11.3933 4.87991C11.3364 4.89129 11.2823 4.91377 11.2341 4.94606C11.1859 4.97835 11.1445 5.01982 11.1123 5.06811C11.0801 5.1164 11.0578 5.17055 11.0465 5.22748C11.0352 5.28441 11.0353 5.343 11.0467 5.39991C11.0581 5.45681 11.0805 5.51092 11.1128 5.55914C11.1451 5.60736 11.1866 5.64874 11.2349 5.68093C11.2832 5.71313 11.3373 5.73549 11.3942 5.74675C11.4512 5.75801 11.5098 5.75795 11.5667 5.74657C11.986 5.67485 12.5514 5.7401 13.1496 5.80914C13.997 5.90694 14.9101 6.01232 15.5667 5.74657C16.0418 5.52222 16.0597 4.89292 16.0729 4.42758L16.0733 4.41324C16.2322 3.17946 16.2546 1.93192 16.14 0.693239C16.0473 0.51344 15.9081 0.36174 15.737 0.253887C15.5658 0.146035 15.3689 0.0859622 15.1667 0.0799062C13.7376 -0.027612 12.3024 -0.027612 10.8733 0.0799062C8.75988 0.454879 8.89297 1.52706 8.97022 2.14938C8.98362 2.2573 8.99533 2.35169 8.99336 2.42657C8.92194 4.33331 9.01562 6.24265 9.27336 8.13324Z" fill="black"/>
<path d="M11.2243 18.5379C11.1418 18.6204 11.0299 18.6668 10.9132 18.6668C10.8065 18.7468 6.21984 20.0001 5.75317 18.8135C5.75541 18.6934 5.7971 18.5775 5.8718 18.4835C5.94651 18.3895 6.05007 18.3227 6.16651 18.2935C7.67507 17.7036 9.3141 17.5287 10.9132 17.7868C11.0299 17.7868 11.1418 17.8332 11.2243 17.9157C11.3068 17.9982 11.3532 18.1101 11.3532 18.2268C11.3532 18.3435 11.3068 18.4554 11.2243 18.5379Z" fill="black"/>
<path d="M15.1932 23.5466C15.5935 25.1695 15.883 26.8178 16.0599 28.4799C16.1868 29.5571 16.1734 30.6462 16.0199 31.7199C15.7532 31.9599 15.4465 31.7466 15.3132 31.6133C15.1995 31.4996 15.1537 31.2599 14.8452 29.6464L14.8446 29.6435C14.7914 29.3653 14.7304 29.0462 14.6599 28.6799C14.4666 27.405 14.3819 26.1159 14.4065 24.8266C14.4043 24.7727 14.3933 24.6899 14.38 24.5896C14.3145 24.0949 14.1924 23.1733 14.7799 23.1733C14.8318 23.1697 14.8838 23.1766 14.933 23.1935C14.9821 23.2105 15.0273 23.2372 15.0659 23.2721C15.1045 23.3069 15.1357 23.3492 15.1575 23.3964C15.1794 23.4435 15.1915 23.4946 15.1932 23.5466Z" fill="black"/>
<path d="M29.3753 14.3281C29.4072 14.4736 29.4398 14.622 29.4734 14.7734C29.5369 15.0657 29.6081 15.369 29.6811 15.6797C30.1441 17.6509 30.6784 19.9258 29.78 21.6534C29.0582 22.8908 27.7457 22.9271 26.4262 22.9635C26.2101 22.9695 25.9939 22.9755 25.78 22.9867C23.7934 23.0667 22.2867 23.0667 20.8467 23.0667C20.7968 23.7547 20.7968 24.4454 20.8467 25.1334C20.8941 25.8526 20.8941 26.5742 20.8467 27.2934C20.8067 28.0267 20.3934 31.4801 20.3134 31.6534C20.2913 31.7439 20.2374 31.8234 20.1615 31.8772C20.0855 31.9311 19.9927 31.9558 19.9 31.9467C19.3934 32.0134 19.3934 31.3334 19.3934 30.8267C19.1896 28.2304 19.3512 25.6182 19.8734 23.0667H16.5534C16.4367 23.0667 16.3247 23.0204 16.2422 22.9379C16.1597 22.8553 16.1134 22.7434 16.1134 22.6267C16.1134 22.51 16.1597 22.3981 16.2422 22.3156C16.3247 22.2331 16.4367 22.1867 16.5534 22.1867C16.5931 22.1852 16.7514 22.1823 17.0028 22.1776C18.9448 22.1417 26.4415 22.003 27.74 21.6134C29.5159 21.0806 28.7057 17.8462 28.1938 15.8025C28.1292 15.5445 28.0693 15.3056 28.02 15.0934C27.9984 14.9904 27.9774 14.8899 27.9568 14.7918C27.3314 11.8036 27.1736 11.0494 25.3534 10.5201C22.5419 9.69468 21.3327 9.70643 18.5905 9.73311C17.0801 9.74782 15.1046 9.76703 12.14 9.65338H11.7134C15.3267 11.1601 15.8067 14.7334 16.02 18.7334C16.14 20.9601 16.1 22.7734 13.6334 23.0801C13.5534 23.0934 8.62002 23.2934 6.88669 23.2934C6.52524 23.3479 6.15645 23.3275 5.80322 23.2334C5.44999 23.1394 5.11987 22.9737 4.83336 22.7467C4.79183 22.7058 4.75886 22.657 4.73635 22.6032C4.71385 22.5494 4.70226 22.4917 4.70226 22.4334C4.70226 22.3751 4.71385 22.3174 4.73635 22.2636C4.75886 22.2098 4.79183 22.161 4.83336 22.1201C5.07485 21.8786 5.26056 21.9941 5.4807 22.1311C5.60088 22.2059 5.73131 22.2871 5.88669 22.3201C6.65201 22.4776 11.4454 22.0747 12.9855 21.9452C13.2699 21.9213 13.4434 21.9067 13.46 21.9067C14.9043 21.666 14.8318 20.7752 14.6952 19.0971C14.688 19.0092 14.6807 18.919 14.6734 18.8267C14.46 16.2134 14.1267 12.7601 11.9134 11.4267C10.8714 10.7482 9.61629 10.4764 8.38696 10.6633C7.15764 10.8502 6.03996 11.4825 5.24669 12.4401C3.51188 14.5026 3.72075 18.9755 3.83383 21.3972C3.87719 22.3258 3.90647 22.9528 3.80669 23.0267C3.75586 23.073 3.69364 23.1048 3.62641 23.1191C3.55918 23.1333 3.48938 23.1293 3.42419 23.1076C3.359 23.0858 3.30078 23.0471 3.25552 22.9954C3.21027 22.9437 3.1796 22.8809 3.16669 22.8134C2.94032 21.1553 2.80234 19.4862 2.75335 17.8134C2.7461 16.2977 2.95715 14.7889 3.38002 13.3334C3.54584 12.6877 3.83879 12.0815 4.24173 11.5503C4.64467 11.0192 5.14951 10.5737 5.72669 10.2401C11.4067 7.21338 23.7667 8.61339 25.7267 9.13339C28.3884 9.83051 28.7608 11.5277 29.3753 14.3281Z" fill="black"/>
</g>
</g>
<defs>
<clipPath id="clip0_1_4">
<rect width="32" height="32" fill="white"/>
</clipPath>
</defs>
</svg>
