<svg width="450" height="364" viewBox="0 0 450 364" fill="none" xmlns="http://www.w3.org/2000/svg">
<g clip-path="url(#clip0_1_544)">
<path d="M419.794 280.307L159.985 333.042L127.605 63.9596L449.038 1.58551L419.794 280.307Z" stroke="black" stroke-width="1.92394" stroke-linecap="round" stroke-linejoin="round"/>
<path d="M211.903 322.566L270.958 310.137C270.958 310.137 276.951 291.09 266.139 292.177C264.042 292.389 261.877 292.101 260.021 291.09C257.048 289.474 265.052 279.97 268.428 271.909L235.933 284.857L211.903 322.566Z" fill="black" stroke="black" stroke-width="1.92394" stroke-miterlimit="3"/>
<path d="M297.797 74.2335L275.787 267.666L159.168 169.305L167.085 105.045L233.105 178.54L254.672 72.0402L297.797 74.2335Z" fill="black" stroke="black" stroke-width="1.92394" stroke-linecap="round" stroke-linejoin="round"/>
<path d="M268.967 60.9775C269.015 56.9277 269.073 52.8778 269.121 48.8182C269.14 47.5965 269.121 46.2883 268.457 45.259C267.543 43.8833 265.581 43.4697 264.042 44.0661C262.502 44.6625 261.406 46.0959 260.857 47.6446C260.309 49.1934 260.242 50.8769 260.261 52.5218C260.367 59.2075 261.906 65.7874 263.445 72.2999L288.899 73.9738C291.804 66.5666 296.643 60.1022 300.491 53.1375C304.339 46.1728 307.253 38.1692 305.781 30.358C305.57 29.2614 305.108 28.0012 304.021 27.7415C303.252 27.5587 302.482 27.9723 301.847 28.4341C299.173 30.3773 297.432 33.3209 295.912 36.2453C293.872 40.1797 292.102 44.2393 290.602 48.4046C292.814 42.2576 295.056 35.8316 294.296 29.3383C294.219 28.6938 294.094 28.0012 293.613 27.5587C293.055 27.0392 292.208 27.02 291.458 27.1354C287.321 27.7511 284.204 31.3489 282.511 35.1775C280.818 39.0061 280.183 43.2196 278.721 47.1444C281.386 40.3818 283.012 33.2151 283.512 25.9715C283.579 24.9999 283.56 23.8647 282.79 23.2587C282.338 22.9028 281.723 22.8258 281.145 22.8643C279.068 23.0182 277.288 24.5477 276.259 26.3659C275.229 28.184 274.845 30.2811 274.46 32.3301C273.729 36.2645 274.238 38.0153 273.507 41.9498C274.623 36.1972 273.969 32.5321 274.017 26.6737C274.017 26.2697 274.017 25.8464 273.806 25.5001C273.267 24.5862 271.824 24.8844 270.997 25.5578C269.082 27.1258 268.544 29.7905 268.303 32.2531C267.841 36.9379 268.024 41.6804 268.842 46.3171" fill="white"/>
<path d="M269.929 60.9775L270.083 49.2992C270.102 47.7312 270.16 45.9804 269.198 44.6433C268.322 43.4312 266.831 42.7867 265.34 42.8444C262.137 42.9598 260.088 45.9419 259.559 48.8375C259.222 50.6652 259.28 52.5411 259.376 54.388C259.472 56.235 259.684 58.1205 259.953 59.9675C260.569 64.2098 261.55 68.3847 262.531 72.55C262.637 72.9829 263.041 73.233 263.455 73.2523C266.321 73.4447 269.188 73.6274 272.064 73.8198C276.634 74.118 281.203 74.4163 285.772 74.7241C286.821 74.7914 287.87 74.8588 288.908 74.9261C289.361 74.955 289.688 74.599 289.832 74.2239C293.709 64.3925 300.904 56.2927 304.714 46.4229C306.599 41.5361 307.619 36.2645 306.868 31.041C306.715 29.954 306.513 28.8093 305.839 27.905C305.127 26.943 303.983 26.5005 302.809 26.8468C301.635 27.1932 300.654 28.0685 299.808 28.8862C298.923 29.7424 298.143 30.714 297.441 31.724C295.796 34.1001 294.526 36.7455 293.305 39.3525C291.958 42.2287 290.746 45.1628 289.668 48.1545L291.525 48.6643C292.785 45.1435 294.045 41.6035 294.776 37.9191C295.132 36.1395 295.363 34.3213 295.402 32.5032C295.421 31.599 295.392 30.6947 295.306 29.7905C295.229 28.9536 295.142 28.0589 294.671 27.3374C293.757 25.9234 291.958 26.0003 290.515 26.337C289.139 26.6544 287.841 27.3086 286.715 28.1455C284.281 29.9636 282.569 32.5417 281.405 35.3218C279.847 39.0542 279.183 43.0849 277.788 46.8847C277.605 47.3753 277.99 47.9428 278.461 48.0679C279.01 48.2218 279.452 47.8851 279.645 47.3945C282.329 40.5645 284.012 33.292 284.474 25.9618C284.57 24.4515 284.31 22.7488 282.723 22.1139C281.309 21.5464 279.587 22.0274 278.336 22.7873C275.441 24.5574 274.344 27.8761 273.729 31.0314C273.373 32.8207 273.132 34.6196 273.055 36.4377C272.978 38.2558 272.901 39.9393 272.584 41.6804C272.363 42.8925 274.21 43.412 274.44 42.1903C274.989 39.314 275.181 36.4088 275.123 33.4844C275.095 32.0992 275.037 30.714 275.008 29.3191C274.989 28.5495 274.979 27.78 274.979 27.0104C274.979 26.2408 274.989 25.4327 274.489 24.7882C273.68 23.7397 272.257 23.8166 271.16 24.3265C270.063 24.8363 269.198 25.9426 268.649 27.0008C267.341 29.5596 267.226 32.6668 267.129 35.4757C266.995 39.1889 267.283 42.9021 267.918 46.5672C268.005 47.0771 268.64 47.3657 269.101 47.2406C269.64 47.0963 269.861 46.5672 269.775 46.0574C269.275 43.21 269.025 40.3337 269.015 37.4478C269.015 34.8889 269.053 32.1858 269.688 29.6943C269.948 28.6746 270.342 27.6549 271.035 26.8468C271.314 26.5294 271.631 26.1927 272.036 26.0195C272.257 25.9233 272.757 25.7502 272.959 25.9426C273.238 26.2119 273.055 27.222 273.055 27.5779C273.055 28.2321 273.065 28.8766 273.084 29.5307C273.113 30.7813 273.161 32.0415 273.19 33.292C273.248 36.1106 273.113 38.9003 272.584 41.6804L274.44 42.1903C274.95 39.3909 274.816 36.5724 275.191 33.7634C275.402 32.1954 275.71 30.6081 276.162 29.0882C276.557 27.7511 277.144 26.4428 278.115 25.4231C278.952 24.5477 280.087 23.8166 281.338 23.7878C281.838 23.7782 282.271 23.884 282.454 24.3938C282.675 25.0095 282.559 25.7598 282.511 26.3947C282.261 29.675 281.78 32.9265 281.068 36.1299C280.26 39.7853 279.154 43.3735 277.788 46.8654L279.645 47.3753C281.674 41.8536 282.146 35.341 286.427 30.9256C287.312 30.0213 288.312 29.2614 289.457 28.7131C290.005 28.4533 290.592 28.2706 291.188 28.1359C291.689 28.0301 292.381 27.8761 292.843 28.1647C293.305 28.4533 293.324 29.2902 293.372 29.7712C293.449 30.5985 293.478 31.4258 293.468 32.2531C293.449 33.8981 293.257 35.543 292.949 37.1592C292.237 40.9205 290.948 44.5375 289.659 48.1256C289.236 49.2896 291.092 49.7898 291.515 48.6355C293.247 43.8545 295.286 39.1023 297.826 34.6869C298.951 32.7341 300.269 30.8486 302.049 29.4345C302.626 28.9728 303.646 28.1647 304.271 28.9728C304.848 29.7231 304.935 30.8967 305.05 31.7914C306.262 41.767 300.837 50.9442 295.825 59.0921C292.929 63.7961 290.015 68.5098 287.985 73.6755L288.908 72.9733C286.042 72.7809 283.175 72.5981 280.299 72.4058L266.591 71.5015C265.542 71.4342 264.494 71.3668 263.455 71.2995L264.378 72.0017C262.829 65.4218 261.233 58.7458 261.223 51.9446C261.223 49.4435 261.646 46.0766 264.301 44.9511C265.282 44.5375 266.562 44.6529 267.36 45.3936C268.361 46.3267 268.178 48.0102 268.159 49.2415L268.005 60.9198C267.986 62.1608 269.91 62.1608 269.929 60.9198V60.9775Z" fill="black"/>
<path d="M33.2745 330.021C36.5548 327.645 39.8352 325.269 43.1251 322.893C44.1159 322.172 45.1645 321.383 45.5781 320.238C46.1361 318.689 45.2991 316.862 43.8947 315.986C42.4998 315.111 40.7009 315.082 39.1233 315.563C37.5457 316.044 36.1604 316.996 34.8521 317.997C29.5517 322.075 25.194 327.232 20.8843 332.359L34.7367 353.782C42.4132 351.685 50.4842 351.714 58.3723 350.646C66.2605 349.578 74.418 347.144 79.805 341.286C80.565 340.468 81.2961 339.333 80.8536 338.314C80.5361 337.592 79.7473 337.217 78.997 336.986C75.8417 335.995 72.4459 336.361 69.1849 336.89C64.8175 337.602 60.4886 338.602 56.256 339.891C62.5088 337.996 69.0021 335.957 73.7638 331.474C74.2352 331.031 74.7162 330.512 74.7835 329.858C74.8701 329.107 74.3795 328.405 73.8408 327.876C70.8683 324.923 66.1354 324.567 62.047 325.5C57.9683 326.433 54.207 328.424 50.1859 329.598C57.1987 327.703 63.9229 324.731 70.041 320.806C70.8587 320.277 71.7629 319.584 71.7918 318.603C71.811 318.026 71.5032 317.487 71.128 317.044C69.762 315.467 67.4725 314.947 65.4043 315.217C63.3361 315.486 61.4218 316.419 59.5459 317.333C55.9482 319.093 54.8515 320.556 51.2634 322.316C56.5446 319.786 59.0938 317.073 63.8171 313.61C64.1441 313.37 64.4808 313.11 64.6347 312.744C65.0484 311.763 63.9517 310.782 62.9128 310.532C60.5175 309.935 58.0452 311.09 55.9289 312.36C51.8983 314.784 48.1947 317.766 44.9625 321.19" fill="white"/>
<path d="M33.7651 330.858C36.9877 328.53 40.2007 326.202 43.4233 323.865C44.7124 322.932 46.088 321.931 46.569 320.334C47.0115 318.843 46.4824 317.237 45.4916 316.092C43.1636 313.398 39.1137 314.149 36.4202 315.765C33.39 317.573 30.7157 320.142 28.253 322.643C25.4249 325.519 22.8179 328.607 20.2206 331.686C19.9512 332.003 19.8262 332.474 20.0667 332.85C21.6251 335.264 23.1931 337.679 24.7515 340.093L32.2164 351.627C32.7839 352.512 33.3515 353.388 33.9287 354.273C34.1595 354.638 34.5924 354.831 35.0157 354.715C45.328 351.935 56.2368 352.916 66.5202 349.973C70.9645 348.703 75.2549 346.731 78.7661 343.672C80.3341 342.306 83.1046 339.824 81.5558 337.534C80.9017 336.563 79.7377 336.149 78.6507 335.87C77.3328 335.533 75.9571 335.399 74.6008 335.399C71.5128 335.399 68.4153 335.995 65.4043 336.601C62.2394 337.236 59.113 338.025 56.0251 338.958L56.535 340.815C62.8744 338.891 69.7524 336.803 74.5911 332.022C75.1587 331.464 75.6493 330.801 75.7551 329.983C75.8609 329.098 75.4762 328.299 74.9278 327.626C73.9466 326.414 72.5421 325.567 71.1184 324.99C68.2229 323.826 64.9041 323.884 61.9028 324.548C57.7759 325.462 53.9954 327.472 49.9551 328.675C48.7719 329.021 49.2625 330.858 50.4649 330.531C57.343 328.665 63.9614 325.779 70.0025 321.989C71.2723 321.19 72.8885 320.151 72.773 318.42C72.6576 316.804 71.1858 315.515 69.7909 314.89C66.5972 313.475 63.2399 314.534 60.2482 315.948C58.5455 316.756 56.9198 317.65 55.3614 318.718C53.803 319.786 52.3985 320.7 50.792 321.498C49.6761 322.047 50.6573 323.692 51.7636 323.162C54.2551 321.96 56.5542 320.459 58.7475 318.776C59.8249 317.949 60.8735 317.102 61.9412 316.265C62.4896 315.832 63.0475 315.399 63.6151 314.976C64.1826 314.553 64.8849 314.149 65.3081 313.533C66.1547 312.321 65.4717 310.897 64.3654 310.147C63.1148 309.301 61.4218 309.3 59.9981 309.589C57.0833 310.176 54.409 312.1 52.0329 313.803C49.2529 315.794 46.6652 318.045 44.3083 320.527C43.4618 321.421 44.8182 322.787 45.6647 321.883C47.4925 319.949 49.4549 318.151 51.5616 316.525C53.6683 314.899 55.9193 313.302 58.3242 312.177C59.469 311.638 60.7292 311.253 61.999 311.359C62.5473 311.398 64.3846 311.907 63.49 312.677C62.5473 313.485 61.4795 314.187 60.4983 314.957C59.5844 315.669 58.6898 316.4 57.7663 317.112C55.573 318.805 53.2739 320.296 50.7824 321.498L51.754 323.162C54.3224 321.893 56.5253 320.065 59.0361 318.699C61.5468 317.333 64.5578 315.726 67.5014 316.198C68.6846 316.39 70.0122 316.939 70.6567 318.016C71.3878 319.238 69.3676 320.123 68.5692 320.613C65.8468 322.297 63.009 323.797 60.0846 325.096C56.8043 326.549 53.4086 327.741 49.9551 328.675L50.4649 330.531C56.3426 328.79 62.2876 324.923 68.6558 326.26C69.9641 326.529 71.205 327.02 72.292 327.799C72.7923 328.155 73.3117 328.588 73.6388 329.107C74.0428 329.742 73.7158 330.185 73.2252 330.666C71.0992 332.763 68.4345 334.302 65.7314 335.533C62.605 336.957 59.2958 337.958 56.0155 338.958C54.8323 339.314 55.3325 341.171 56.5253 340.815C61.5564 339.295 66.8088 337.996 72.0515 337.467C74.3507 337.236 76.9961 337.13 79.1701 338.063C79.5068 338.208 79.9301 338.429 80.0263 338.814C80.1417 339.295 79.7762 339.824 79.5068 340.189C78.8623 341.055 77.9965 341.815 77.1788 342.508C70.2527 348.395 60.6522 349.607 51.9368 350.386C46.088 350.915 40.1911 351.329 34.4962 352.868L35.5833 353.311C34.0249 350.896 32.4569 348.482 30.8985 346.067C28.407 342.219 25.9251 338.371 23.4336 334.533C22.866 333.648 22.2985 332.773 21.7213 331.888L21.5674 333.052C25.7038 328.136 29.8884 323.172 34.9387 319.161C37.0647 317.468 40.0372 315.342 42.8846 316.544C43.962 316.996 44.7893 318.064 44.7797 319.257C44.7797 320.613 43.4137 321.498 42.4325 322.21C39.2195 324.538 35.9969 326.866 32.7743 329.204C32.351 329.511 32.149 330.041 32.428 330.522C32.6685 330.935 33.3226 331.176 33.7459 330.868L33.7651 330.858Z" fill="black"/>
<path d="M167.085 105.045L159.168 169.305L149.49 257.287L50.9363 269.042L11.0338 120.466L167.085 105.045Z" fill="black" stroke="black" stroke-width="1.92394" stroke-linecap="round" stroke-linejoin="round"/>
<path d="M62.7108 106.325C67.3282 106.681 71.9361 105.238 75.9956 103.006C80.0551 100.784 83.6432 97.8018 87.2025 94.8485C92.1374 90.7505 97.1493 86.5563 100.555 81.1308C102.633 77.8313 104.047 74.1565 105.182 70.4241C106.894 64.8254 107.991 59.0344 108.327 53.1952C108.414 51.7426 108.433 50.2516 107.943 48.8856C106.981 46.2209 104.249 44.6048 101.526 43.7775C93.0128 41.1995 83.8933 44.374 75.7455 47.9332C71.33 49.8572 66.9338 51.9254 63.0282 54.7536C52.5812 62.3243 46.3861 75.4071 47.1653 88.2783C47.4058 92.2223 48.2812 96.1953 50.311 99.5814C52.3407 102.968 55.6595 105.7 59.5266 106.469L62.7011 106.315L62.7108 106.325Z" fill="black"/>
<path d="M62.7108 107.287C69.9929 107.797 76.7171 104.228 82.3638 99.9758C85.1824 97.8499 87.8952 95.5604 90.5887 93.2709C93.2822 90.9814 95.6775 88.8073 97.9093 86.2581C100.141 83.7089 102.094 80.7653 103.537 77.6196C104.98 74.474 106.105 71.0013 107 67.5767C107.952 63.9212 108.645 60.1887 109.039 56.4274C109.395 53.0317 109.915 49.2511 107.606 46.4133C105.653 44.0084 102.45 42.854 99.4965 42.3057C96.0142 41.6612 92.4645 41.8343 89.0014 42.4885C85.5383 43.1426 82.056 44.3258 78.7276 45.663C75.3992 47.0001 72.2343 48.395 69.1079 49.9919C65.9815 51.5887 63.1052 53.3684 60.4598 55.5713C58.1222 57.5145 56.0443 59.7558 54.2166 62.1896C50.5803 67.0283 48.0407 72.7328 46.8864 78.6778C45.732 84.6228 45.7416 91.7606 48.2524 97.6575C49.4933 100.572 51.4173 103.141 53.9761 105.036C55.2074 105.95 56.5926 106.662 58.0548 107.114C58.5358 107.268 59.0842 107.45 59.594 107.46C59.9499 107.46 60.3059 107.421 60.6618 107.412L62.7204 107.316C63.9517 107.258 63.9613 105.334 62.7204 105.392L60.6618 105.488C60.3347 105.507 60.0076 105.536 59.6806 105.536C59.6132 105.536 59.4882 105.526 59.6229 105.536C59.2188 105.488 58.7859 105.334 58.4012 105.199C55.8231 104.343 53.5624 102.525 51.9656 100.341C48.3101 95.3295 47.6656 88.5957 48.2427 82.5834C49.349 71.059 55.9289 60.3234 65.7025 54.1379C68.6077 52.3006 71.7052 50.7999 74.8412 49.405C77.9772 48.0102 81.0171 46.7404 84.2204 45.7207C87.4238 44.701 90.7714 43.9411 94.1672 43.8352C97.207 43.7487 100.468 44.1238 103.239 45.4802C104.431 46.067 105.586 46.8366 106.365 47.9332C107.298 49.2415 107.462 50.771 107.423 52.3487C107.327 55.8503 106.836 59.3711 106.144 62.8053C104.816 69.414 102.825 76.2825 98.9482 81.8812C95.2735 87.172 90.1077 91.2604 85.1824 95.3295C79.9974 99.6103 74.3987 103.853 67.6361 105.122C66.02 105.43 64.375 105.507 62.73 105.392C61.4987 105.305 61.4987 107.229 62.73 107.316L62.7108 107.287Z" fill="black"/>
<path d="M108.068 83.8436C108.068 83.8436 108.068 100.563 94.3019 97.6863" stroke="black" stroke-width="1.92394" stroke-linecap="round" stroke-linejoin="round"/>
<path d="M104.932 70.2029C107.337 72.6463 108.866 75.7534 109.809 79.0241C110.28 80.6787 110.607 82.3622 110.829 84.0649C111.05 85.7675 111.569 87.1913 112.858 88.3841C113.464 88.9517 114.147 89.4327 114.83 89.9136C115.177 90.1541 115.523 90.4042 115.86 90.6544C116.033 90.789 116.639 91.1546 116.687 91.3566V90.8468C116.687 90.8468 116.86 90.7794 116.687 90.8756C116.61 90.9141 116.523 91.0295 116.456 91.0969C116.254 91.2893 116.042 91.472 115.84 91.6644C115.456 92.0204 115.08 92.3667 114.696 92.7226C113.907 93.4537 113.128 94.1752 112.339 94.9063C111.704 95.4931 111.079 96.0991 110.55 96.7917C109.982 97.5324 109.626 98.3501 109.309 99.2159C108.145 102.467 106.153 105.151 103.739 107.585C102.354 108.98 100.872 110.279 99.3907 111.577C98.4576 112.395 99.8236 113.751 100.747 112.934C103.46 110.558 106.173 108.143 108.308 105.219C109.347 103.795 110.203 102.256 110.838 100.611C111.184 99.7161 111.435 98.8022 112.012 98.0134C112.531 97.3016 113.205 96.7051 113.849 96.1087C114.667 95.3488 115.484 94.5888 116.312 93.8385C116.697 93.4825 117.072 93.1362 117.457 92.7803C117.803 92.4629 118.197 92.1646 118.409 91.7414C118.89 90.8083 118.14 90.0676 117.466 89.5192C116.841 88.9998 116.167 88.538 115.504 88.0667C114.282 87.1913 113.157 86.2582 112.839 84.7286C112.474 82.9778 112.329 81.2078 111.896 79.4666C110.905 75.5418 109.135 71.7613 106.269 68.8465C105.403 67.9615 104.037 69.3179 104.912 70.2029H104.932Z" fill="black"/>
<path d="M54.4186 105.344C55.092 107.931 55.9577 110.548 57.7374 112.606C59.517 114.665 62.2009 115.704 64.7309 116.637C65.2215 116.82 65.7891 116.435 65.9141 115.964C66.0584 115.425 65.7314 114.963 65.2408 114.781C63.009 113.963 60.7003 113.087 59.0938 111.25C57.4873 109.413 56.8524 107.075 56.2752 104.834C55.9674 103.631 54.1108 104.141 54.4186 105.344Z" fill="black"/>
<path d="M149.49 257.287L288.322 157.521L275.633 269.042L220.551 290.994L240.569 239.51L172.77 330.512L71.6956 351.031L50.9363 269.042L149.49 257.287Z" fill="black" stroke="black" stroke-width="1.92394" stroke-linecap="round" stroke-linejoin="round"/>
<path d="M55.3228 286.358L37.2089 358.024L13.3425 362.873L0.961914 259.99L11.0337 120.466L55.3228 286.358Z" fill="black" stroke="black" stroke-width="1.92394" stroke-linecap="round" stroke-linejoin="round"/>
</g>
<defs>
<clipPath id="clip0_1_544">
<rect width="450" height="363.211" fill="white" transform="translate(0 0.623535)"/>
</clipPath>
</defs>
</svg>
