<svg width="376" height="421" viewBox="0 0 376 421" fill="none" xmlns="http://www.w3.org/2000/svg">
<g clip-path="url(#clip0_1_631)">
<path d="M127.415 198.676L107.201 222.547L136.351 226.823L110.737 254.231L85.2139 253.258L104.202 274.313L169.149 279.44L168.916 256.328L194.632 252.093L193.061 223.996L165.37 228.323L176.211 208.393L127.415 198.676Z" fill="black" stroke="black" stroke-width="2.02644" stroke-linecap="round" stroke-linejoin="round"/>
<path d="M95.184 372.301L68.82 380.589L96.1769 394.095L1.46112 419.821L26.741 322.43L91.05 312.531L79.5297 342.928L110.858 336.524L95.184 372.301Z" fill="black" stroke="black" stroke-width="2.02644" stroke-linecap="round" stroke-linejoin="round"/>
<path d="M240.733 354.833L164.306 375.584L155.268 353.303L179.859 339.919L167.568 313.301L140.992 327.496L144.467 304.294L209.029 294.354L236.711 347.163L240.733 354.833Z" fill="black" stroke="black" stroke-width="2.02644" stroke-linecap="round" stroke-linejoin="round"/>
<path d="M236.457 348.177C243.641 348.166 250.835 348.146 257.998 347.609C264.746 347.103 271.667 346.282 278.101 344.093C283.754 342.178 289.094 338.987 292.519 333.991C293.329 332.816 293.988 331.55 294.505 330.222C295.021 328.895 295.66 327.122 294.606 325.845C293.816 324.883 292.498 324.639 291.313 324.599C289.591 324.528 287.838 324.68 286.115 324.741C277.959 325.024 269.802 325.45 261.656 325.997L261.93 327.983C271.707 325.045 283.44 328.865 292.012 321.985C293.836 320.526 295.67 318.327 295.69 315.865C295.7 313.22 293.289 311.518 291.131 310.515C286.308 308.276 280.725 308.539 275.547 308.742C268.749 309.006 261.97 309.725 255.263 310.87C254.726 310.961 254.422 311.63 254.553 312.116C254.715 312.704 255.252 312.896 255.8 312.825C262.071 311.964 268.343 311.103 274.615 310.242C277.776 309.806 280.948 309.38 284.109 308.945C286.429 308.62 288.922 307.972 290.097 305.723C291.09 303.808 290.877 301.538 289.986 299.633C288.983 297.485 286.987 296.117 284.828 295.276C282.447 294.354 279.823 294.142 277.29 294.04C274.261 293.919 271.221 293.949 268.191 294.111C261.362 294.496 254.574 295.601 247.978 297.404C246.711 297.749 247.248 299.633 248.515 299.36C253.054 298.377 257.583 297.394 262.122 296.421C264.392 295.935 266.661 295.438 268.921 294.952C270.978 294.506 273.065 294.121 275.091 293.544C278.617 292.541 282.204 290.585 283.349 286.846C283.846 285.235 283.694 283.452 282.802 282.003C282.022 280.716 280.796 279.855 279.428 279.298C276.52 278.123 273.186 278.356 270.147 278.69C265.76 279.186 261.372 279.683 257.005 280.341C248.717 281.588 240.48 283.442 232.81 286.897C226.122 289.906 219.82 294.152 215.19 299.897C214.622 300.606 214.075 301.325 213.548 302.075C212.799 303.149 214.551 304.162 215.301 303.098C219.263 297.435 224.886 293.159 230.986 290.018C237.845 286.482 245.363 284.445 252.932 283.067C257.015 282.327 261.139 281.77 265.253 281.284C268.678 280.879 272.204 280.24 275.669 280.524C278.07 280.727 281.15 281.628 281.576 284.404C282.093 287.758 278.698 290.149 275.973 291.132C274.2 291.771 272.335 292.145 270.491 292.541C268.343 293.007 266.205 293.463 264.057 293.929C259.771 294.851 255.486 295.783 251.2 296.705C250.126 296.938 249.052 297.171 247.988 297.404L248.525 299.36C254.006 297.85 259.619 296.837 265.294 296.34C268.161 296.097 271.028 295.975 273.906 295.986C276.429 295.986 279.013 296.006 281.505 296.462C283.613 296.847 285.882 297.587 287.351 299.238C288.446 300.474 289.043 302.339 288.628 303.96C288.071 306.138 285.862 306.645 283.896 306.928C280.968 307.354 278.03 307.729 275.101 308.134C268.495 309.036 261.889 309.948 255.283 310.85L255.82 312.805C261.413 311.853 267.046 311.214 272.71 310.89C275.395 310.738 278.101 310.627 280.796 310.647C283.146 310.667 285.507 310.819 287.787 311.427C288.922 311.731 290.016 312.136 291.039 312.714C291.941 313.22 292.924 313.839 293.431 314.761C294.495 316.716 292.397 318.986 291.039 320.181C287.848 322.978 283.319 323.971 279.205 324.325C273.278 324.842 267.208 324.275 261.433 326.007C260.379 326.321 260.521 328.074 261.707 327.993C268.597 327.527 275.486 327.152 282.376 326.879C284.099 326.808 285.821 326.747 287.554 326.686C288.983 326.636 290.523 326.423 291.941 326.636C292.316 326.686 292.904 326.787 293.137 327.142C293.42 327.568 293.056 328.348 292.924 328.763C292.519 330.01 291.941 331.195 291.252 332.31C288.314 337.001 283.379 340.071 278.263 341.905C272.204 344.073 265.679 344.934 259.285 345.471C251.716 346.11 244.107 346.12 236.508 346.14C235.201 346.14 235.201 348.166 236.508 348.166L236.457 348.177Z" fill="black"/>
<path d="M210.022 202.891L374.539 89.1062L323.726 1.84766L164.65 147.64L210.022 202.891Z" fill="black" stroke="black" stroke-width="2.02644" stroke-linecap="round" stroke-linejoin="round"/>
<path d="M203.609 194.198C199.819 198.514 196.03 202.83 192.068 206.984C185.989 213.368 178.562 219.761 169.747 219.721C168.683 219.721 167.538 219.579 166.717 218.91C165.562 217.968 165.38 216.205 165.897 214.796C166.413 213.388 167.457 212.273 168.49 211.189C171.297 208.231 174.114 205.272 176.92 202.314C173.597 205.1 170.172 207.765 166.646 210.298C164.144 212.091 161.398 213.895 158.318 213.945C155.238 213.996 151.934 211.493 152.319 208.444C152.563 206.539 154.062 205.09 155.471 203.793C159.057 200.5 162.654 197.217 166.241 193.924C160 200.439 152.522 205.758 144.325 209.538C142.086 210.571 139.502 211.493 137.223 210.561C134.75 209.558 133.534 206.63 133.676 203.975C133.788 201.939 134.558 199.932 135.845 198.352C137.152 196.751 138.925 195.606 140.657 194.491C145.531 191.371 150.394 188.25 155.268 185.129C147.811 191.259 139.502 196.366 130.667 200.257C127.263 201.756 123.149 203.033 119.978 201.088C116.654 199.051 116.046 194.208 117.637 190.651C119.228 187.095 122.409 184.542 125.52 182.201C138.651 172.342 154.782 162.18 168.734 153.517L203.619 194.177L203.609 194.198Z" fill="white"/>
<path d="M202.889 193.478C199.718 197.085 196.557 200.692 193.284 204.208C190.457 207.248 187.569 210.247 184.297 212.83C181.257 215.232 177.812 217.279 174.012 218.201C172.28 218.626 170.162 218.991 168.399 218.586C167.568 218.393 166.95 217.947 166.717 217.096C166.505 216.306 166.646 215.455 167.001 214.715C167.508 213.661 168.318 212.81 169.108 211.979C170.051 210.986 170.993 209.993 171.935 209C173.83 207.004 175.715 205.019 177.609 203.022C178.521 202.06 177.164 200.763 176.181 201.594C173.475 203.863 170.709 206.052 167.872 208.139C165.349 210.004 162.675 212.192 159.513 212.81C157.244 213.256 154.336 212.304 153.474 209.953C152.441 207.126 155.906 204.755 157.659 203.144C160.76 200.307 163.85 197.47 166.95 194.643L165.522 193.215C159.28 199.699 151.813 205.049 143.606 208.757C141.752 209.598 139.31 210.52 137.344 209.507C135.814 208.717 134.993 207.055 134.74 205.414C134.436 203.408 135.054 201.3 136.159 199.628C137.344 197.825 139.208 196.619 140.992 195.484C145.916 192.323 150.85 189.172 155.785 186.011L154.559 184.42C148.621 189.293 142.137 193.508 135.277 196.974C133.565 197.845 131.822 198.666 130.069 199.436C128.468 200.135 126.776 200.753 125.033 200.996C123.412 201.219 121.74 201.047 120.352 200.145C119.268 199.446 118.539 198.291 118.164 197.075C116.056 190.236 122.987 185.332 127.698 181.846C134 177.196 140.485 172.788 147.03 168.492C153.596 164.186 160.243 160.001 166.91 155.857C167.69 155.371 168.47 154.895 169.24 154.408L168.014 154.246C169.169 155.594 170.324 156.941 171.49 158.289C174.266 161.531 177.042 164.763 179.828 168.006C183.192 171.927 186.546 175.838 189.91 179.759L198.624 189.911L201.471 193.235C201.927 193.762 202.352 194.329 202.839 194.836C202.859 194.856 202.879 194.886 202.899 194.907C203.75 195.9 205.179 194.461 204.328 193.478C203.173 192.13 202.018 190.783 200.853 189.435L192.514 179.718C189.15 175.797 185.796 171.886 182.432 167.965C179.524 164.581 176.627 161.197 173.719 157.813L170.871 154.489C170.416 153.962 169.99 153.395 169.504 152.888C169.483 152.868 169.463 152.838 169.443 152.817C169.159 152.483 168.571 152.432 168.217 152.655C161.266 156.972 154.336 161.308 147.486 165.777C140.637 170.245 133.757 174.885 127.121 179.769C121.69 183.761 114.709 188.696 115.925 196.396C116.441 199.628 118.731 202.374 122.034 202.952C125.874 203.62 129.633 201.878 133.028 200.307C140.333 196.923 147.223 192.698 153.586 187.763C154.386 187.135 155.187 186.507 155.977 185.859C156.869 185.129 155.714 183.65 154.751 184.268C150.019 187.297 145.298 190.327 140.566 193.356C138.529 194.663 136.412 195.97 134.912 197.916C133.413 199.861 132.612 202.151 132.643 204.512C132.663 206.508 133.342 208.555 134.71 210.034C136.381 211.848 138.833 212.243 141.164 211.756C143.494 211.27 145.815 210.014 147.963 208.889C150.111 207.764 152.228 206.528 154.265 205.191C158.865 202.171 163.13 198.625 166.95 194.663C167.862 193.721 166.474 192.353 165.522 193.235C162.492 196.011 159.452 198.787 156.423 201.574C154.062 203.732 150.688 206.245 151.367 209.892C151.904 212.78 154.873 214.685 157.629 214.958C161.155 215.303 164.427 213.155 167.153 211.199C170.75 208.615 174.235 205.9 177.63 203.053L176.201 201.624C174.397 203.529 172.584 205.424 170.78 207.329C169.108 209.092 167.193 210.794 165.805 212.81C164.64 214.512 164.113 216.843 165.218 218.707C166.403 220.713 168.875 220.845 170.963 220.713C179.747 220.166 186.85 213.925 192.646 207.866C196.658 203.671 200.498 199.294 204.328 194.927C205.189 193.954 203.761 192.515 202.899 193.498L202.889 193.478Z" fill="black"/>
</g>
<defs>
<clipPath id="clip0_1_631">
<rect width="375.104" height="420" fill="white" transform="translate(0.447876 0.834473)"/>
</clipPath>
</defs>
</svg>
