<svg width="108" height="111" viewBox="0 0 108 111" fill="none" xmlns="http://www.w3.org/2000/svg">
<path d="M38.4246 14.4966C35.9151 17.6592 36.2772 17.8448 34.1298 21.1931" stroke="black" stroke-width="4.4203" stroke-linecap="round"/>
<path d="M34.1298 21.1924C32.0375 25.3351 32.0676 25.274 30.7288 29.7278" stroke="black" stroke-width="3.19607" stroke-linecap="round"/>
<path d="M30.7289 29.728C28.65 37.3778 28.4736 37.2992 27.0018 45.1196" stroke="black" stroke-width="2.38743" stroke-linecap="round"/>
<path d="M27.0017 45.1196C24.6837 54.0522 25.0976 54.0648 23.6242 63.1019" stroke="black" stroke-width="2.14576" stroke-linecap="round"/>
<path d="M23.6243 63.1021C23.6243 68.5409 22.9947 68.4823 23.6243 73.9797" stroke="black" stroke-width="2.48443" stroke-linecap="round"/>
<path d="M23.6243 73.9795C22.9395 79.415 23.6243 79.3121 23.6243 84.6447" stroke="black" stroke-width="2.62325" stroke-linecap="round"/>
<path d="M23.6244 84.6445C23.1494 91.6906 24.1562 88.7078 26.0578 92.5661" stroke="black" stroke-width="3.24791" stroke-linecap="round"/>
<path d="M26.0577 92.5662C33.9584 93.0478 30.5926 93.93 38.51 89.1226" stroke="black" stroke-width="3.23871" stroke-linecap="round"/>
<path d="M38.51 89.1224C43.5809 81.8205 44.7315 83.758 47.604 73.9858" stroke="black" stroke-width="2.21768" stroke-linecap="round"/>
<path d="M47.604 73.9861C50.5735 66.7795 51.1546 67.0705 53.6566 59.623" stroke="black" stroke-width="2.28207" stroke-linecap="round"/>
<path d="M53.6566 59.6229C55.5339 55.9368 55.2873 55.8381 57.0308 52.1035" stroke="black" stroke-width="2.68847" stroke-linecap="round"/>
<path d="M57.0308 52.1039C60.0069 43.7601 58.4231 48.5399 59.4349 44.8296" stroke="black" stroke-width="2.936" stroke-linecap="round"/>
<path d="M59.435 44.8296C56.5207 51.5646 58.3395 46.8767 53.6959 58.3364" stroke="black" stroke-width="3.02882" stroke-linecap="round"/>
<path d="M53.6958 58.3364C51.4974 63.3078 51.6069 63.3446 49.6067 68.3904" stroke="black" stroke-width="2.76624" stroke-linecap="round"/>
<path d="M49.6067 68.3901C48.3047 71.3763 48.492 71.3855 47.6859 74.4921" stroke="black" stroke-width="3.08401" stroke-linecap="round"/>
<path d="M47.686 74.4927C45.8663 78.8829 47.1416 77.2305 47.2804 80.0979" stroke="black" stroke-width="3.24039" stroke-linecap="round"/>
<path d="M47.2803 80.0966C51.3653 81.4613 48.9252 81.5098 53.8037 79.7471" stroke="black" stroke-width="3.6284" stroke-linecap="round"/>
<path d="M53.8036 79.748C57.1762 75.3093 57.9647 76.8237 60.4801 70.8213" stroke="black" stroke-width="2.81307" stroke-linecap="round"/>
<path d="M60.4803 70.8213C62.4546 68.0442 62.5006 68.0777 64.4524 65.2847" stroke="black" stroke-width="3.05976" stroke-linecap="round"/>
<path d="M64.4524 65.284C67.2998 60.7249 65.7904 63.436 67.1509 61.6055" stroke="black" stroke-width="3.39425" stroke-linecap="round"/>
<path d="M67.1509 61.6055C65.4282 66.2959 66.8247 63.533 63.5024 70.8985" stroke="black" stroke-width="3.66686" stroke-linecap="round"/>
<path d="M63.5024 70.8984C60.4602 74.7242 62.5131 73.2616 61.3198 75.537" stroke="black" stroke-width="3.4762" stroke-linecap="round"/>
<path d="M61.3198 75.537C64.827 76.0563 62.3317 76.4928 67.2453 74.4365" stroke="black" stroke-width="3.75048" stroke-linecap="round"/>
<path d="M67.2454 74.4367C72.4417 69.5397 72.9769 70.5992 77.6204 64.6235" stroke="black" stroke-width="2.57977" stroke-linecap="round"/>
<path d="M77.6204 64.6244C82.4647 59.8169 82.565 59.9306 87.4913 55.2168" stroke="black" stroke-width="2.45182" stroke-linecap="round"/>
<path d="M87.4912 55.2161C90.7358 52.2625 89.0825 53.7602 90.8562 52.5117" stroke="black" stroke-width="3.16094" stroke-linecap="round"/>
<path d="M4.96295 106.063C10.2446 97.5639 10.6175 97.8432 16.2713 89.623" stroke="black" stroke-width="4.50309" stroke-linecap="round"/>
<path d="M16.2713 89.6226C24.6905 78.5986 24.6386 78.5986 33.751 68.1323" stroke="black" stroke-width="1.97852" stroke-linecap="round"/>
<path d="M33.751 68.1328C41.7103 59.0656 41.6342 59.0263 50.1587 50.4775" stroke="black" stroke-width="1.80876" stroke-linecap="round"/>
<path d="M50.1587 50.477C59.971 40.6263 59.8999 40.5736 70.1295 31.1484" stroke="black" stroke-width="1.60305" stroke-linecap="round"/>
<path d="M70.1295 31.1489C78.3086 23.6505 78.2375 23.5853 86.691 16.3945" stroke="black" stroke-width="1.76026" stroke-linecap="round"/>
<path d="M86.6909 16.394C89.4337 14.255 89.32 14.1178 92.1523 12.085" stroke="black" stroke-width="2.5505" stroke-linecap="round"/>
<path d="M92.1523 12.0855C95.0332 9.44046 95.1878 9.66374 98.1991 7.21191" stroke="black" stroke-width="2.87579" stroke-linecap="round"/>
<path d="M98.1991 7.2121C100.567 5.7211 100.475 5.61072 103.037 4.42578" stroke="black" stroke-width="3.54143" stroke-linecap="round"/>
<path d="M70.6166 20.0067C71.3093 20.0067 71.8709 19.4451 71.8709 18.7524C71.8709 18.0596 71.3093 17.498 70.6166 17.498C69.9238 17.498 69.3622 18.0596 69.3622 18.7524C69.3622 19.4451 69.9238 20.0067 70.6166 20.0067Z" fill="black"/>
</svg>
