<svg width="476" height="389" viewBox="0 0 476 389" fill="none" xmlns="http://www.w3.org/2000/svg">
<g clip-path="url(#clip0_1_673)">
<path d="M80.125 66.2246L91.995 172.795L184.445 176.005L200.815 60.4446L80.125 66.2246Z" stroke="black" stroke-width="2" stroke-miterlimit="10"/>
<path d="M80.125 69.6343L9.505 179.414L31.335 185.834L86.995 131.324L80.125 69.6343Z" stroke="black" stroke-width="2" stroke-miterlimit="3"/>
<path d="M200.365 63.6343L259.875 165.724L238.375 174.714L191.285 127.734L200.365 63.6343Z" stroke="black" stroke-width="2" stroke-miterlimit="3"/>
<path d="M91.995 172.794L71.615 345.644H132.765L135.175 174.294L91.995 172.794Z" stroke="black" stroke-width="2" stroke-miterlimit="3"/>
<path d="M184.445 176.005L211.725 345.645L153.575 341.315L145.255 174.645" stroke="black" stroke-width="2" stroke-miterlimit="3"/>
<path d="M115.945 350.994L121.285 387.214L28.645 385.434C28.645 385.434 19.375 359.654 76.085 365.604C78.565 365.864 81.125 365.514 83.315 364.324C86.835 362.414 90.435 355.174 86.455 345.654H115.045L115.935 350.994H115.945Z" stroke="black" stroke-width="2" stroke-miterlimit="3"/>
<path d="M199.315 350.994L203.715 387.214L127.455 385.434C127.455 385.434 119.825 359.654 166.515 365.604C168.555 365.864 170.665 365.514 172.465 364.324C175.365 362.414 174.575 352.164 171.295 342.634L198.585 345.644L199.315 350.984V350.994Z" stroke="black" stroke-width="2" stroke-miterlimit="3"/>
<path d="M26.715 184.825C26.885 189.315 25.815 193.765 23.895 197.805C22.935 199.815 21.795 201.745 20.495 203.555C19.895 204.395 19.205 205.285 18.255 205.745C17.505 206.105 16.285 206.265 16.015 205.275C15.675 204.015 15.875 202.525 16.115 201.275C16.395 199.855 16.845 198.465 17.295 197.085C17.465 196.575 17.095 195.995 16.595 195.855C16.025 195.695 15.565 196.055 15.365 196.555C15.075 197.265 12.435 203.745 11.685 203.285C11.215 202.995 12.175 200.975 12.285 200.675C12.815 199.225 13.335 197.775 13.865 196.325L11.935 195.795C11.595 196.925 11.155 198.005 10.595 199.035C10.325 199.545 10.025 200.035 9.705 200.515C9.525 200.795 9.135 201.575 8.76501 201.645C7.885 201.825 8.21501 199.775 8.27501 199.385C8.47501 198.145 8.81501 196.915 9.31501 195.765L7.48501 194.995C6.75501 196.785 5.66501 198.425 4.32501 199.805C3.99501 200.135 3.66501 200.485 3.29501 200.775C3.01501 200.985 2.91501 200.995 2.68501 200.695C2.11501 199.965 2.19501 198.775 2.34501 197.915C2.53501 196.815 2.90501 195.745 3.24501 194.685C3.58501 193.625 3.94501 192.615 4.39501 191.615C5.27501 189.675 6.51501 187.975 7.92501 186.385C9.64501 184.425 11.445 182.535 13.215 180.615C14.085 179.665 12.675 178.255 11.805 179.205C8.255 183.055 4.22501 186.745 2.21501 191.685C1.72501 192.885 1.32501 194.115 0.945005 195.355C0.565005 196.595 0.205005 197.925 0.265005 199.245C0.325005 200.455 0.685005 201.735 1.69501 202.485C2.78501 203.295 3.91501 202.885 4.85501 202.075C6.89501 200.295 8.415 198.025 9.43501 195.525C9.85501 194.485 8.05501 193.715 7.60501 194.755C6.90501 196.375 6.43501 198.035 6.23501 199.785C6.06501 201.325 6.49501 203.245 8.26501 203.615C10.035 203.985 11.095 202.155 11.855 200.885C12.715 199.455 13.395 197.915 13.875 196.325C14.255 195.075 12.375 194.595 11.945 195.795C11.275 197.655 10.555 199.495 9.925 201.365C9.465 202.725 9.43501 204.655 11.085 205.185C12.995 205.805 14.135 203.895 14.845 202.485C15.745 200.725 16.555 198.915 17.295 197.085L15.365 196.555C14.455 199.325 13.565 202.225 13.965 205.175C14.155 206.555 14.895 207.635 16.315 207.935C17.585 208.205 18.925 207.795 19.945 207.035C20.965 206.275 21.725 205.245 22.455 204.205C23.215 203.115 23.925 201.985 24.575 200.825C25.855 198.525 26.895 196.075 27.615 193.545C28.425 190.715 28.815 187.755 28.695 184.815C28.645 183.535 26.645 183.525 26.695 184.815L26.715 184.825Z" fill="black"/>
<path d="M256.975 168.434C260.005 171.784 262.005 175.934 263.125 180.294C263.705 182.534 264.075 184.844 264.195 187.154C264.245 188.254 264.235 189.484 263.535 190.414C263.295 190.724 262.955 191.024 262.565 191.124C262.065 191.244 261.695 190.834 261.365 190.514C259.535 188.734 258.555 186.294 257.625 183.974C257.425 183.474 256.955 183.124 256.395 183.274C255.885 183.414 255.535 183.984 255.695 184.504C255.955 185.304 258.185 192.004 257.205 192.194C257.295 192.174 257.165 192.144 257.105 192.104C256.935 191.974 256.825 191.774 256.725 191.594C256.435 191.074 256.275 190.484 256.075 189.934C255.545 188.484 255.025 187.034 254.495 185.584L252.565 186.114C253.065 187.294 253.445 188.504 253.705 189.754C253.825 190.344 253.915 190.944 253.975 191.554C254.005 191.844 254.165 192.634 253.895 192.854C253.245 193.374 252.285 191.634 252.075 191.274C251.425 190.184 250.935 189.034 250.575 187.824L248.645 188.354C249.315 190.454 249.555 192.644 249.305 194.844C249.275 195.104 249.215 195.854 249.085 195.964C248.975 196.054 248.525 195.934 248.335 195.844C247.605 195.494 247.065 194.784 246.655 194.104C245.605 192.344 244.875 190.274 244.285 188.324C243.625 186.154 243.455 183.954 243.505 181.694C243.565 179.034 243.735 176.374 243.865 173.724C243.925 172.434 241.925 172.444 241.865 173.724C241.605 179.124 240.875 184.664 242.685 189.874C243.435 192.034 244.245 194.464 245.725 196.244C246.385 197.034 247.295 197.754 248.335 197.934C249.505 198.144 250.595 197.654 251.015 196.504C251.235 195.884 251.275 195.154 251.335 194.504C251.395 193.774 251.415 193.034 251.375 192.304C251.305 190.784 251.025 189.274 250.565 187.834C250.175 186.614 248.265 187.124 248.635 188.364C249.115 189.974 249.815 191.544 250.745 192.944C251.575 194.174 252.905 195.334 254.495 194.764C256.205 194.154 256.055 192.224 255.865 190.754C255.635 188.974 255.175 187.244 254.475 185.584C254.265 185.084 253.815 184.734 253.245 184.884C252.755 185.014 252.365 185.604 252.545 186.114C253.215 187.974 253.865 189.844 254.575 191.684C255.075 192.984 256.165 194.614 257.815 194.084C258.565 193.844 259.125 193.194 259.345 192.444C259.615 191.534 259.365 190.574 259.165 189.674C258.725 187.754 258.205 185.854 257.605 183.974L255.675 184.504C256.675 187.004 257.715 189.564 259.575 191.564C260.495 192.554 261.645 193.434 263.075 193.054C264.275 192.734 265.185 191.744 265.675 190.634C266.275 189.254 266.235 187.734 266.115 186.264C266.005 184.904 265.825 183.544 265.575 182.204C265.095 179.604 264.325 177.074 263.265 174.654C262.055 171.864 260.415 169.294 258.375 167.034C257.505 166.074 256.095 167.494 256.965 168.444L256.975 168.434Z" fill="black"/>
<path d="M159.555 20.5746C156.865 23.8446 153.705 26.3346 149.755 27.0246C144.885 27.8846 140.035 25.7246 135.495 23.6046C133.065 22.4746 130.535 21.2446 128.925 18.9446C127.805 17.3346 127.235 15.3446 126.795 13.3746C126.155 10.4946 125.745 7.5346 125.915 4.5746C125.955 3.9646 126.025 3.3146 126.375 2.8446C126.835 2.2246 127.625 2.0746 128.345 2.0046C134.645 1.3546 140.925 3.2646 146.935 5.4646C150.695 6.8446 154.425 8.3446 158.015 10.1946C160.255 11.3446 162.495 12.6746 164.075 14.7746C165.545 16.7246 166.335 19.1946 166.875 21.6646C167.815 25.9746 168.365 30.9946 167.635 35.4046C166.935 39.6046 162.505 36.5646 161.125 34.0946C160.025 32.1446 159.655 29.7946 159.565 27.4946C159.475 25.1946 159.645 22.8946 159.545 20.5946" fill="black"/>
<path d="M158.855 19.8645C156.365 22.8645 153.245 25.4945 149.275 26.0945C144.625 26.7945 140.025 24.6045 135.925 22.6945C134.175 21.8745 132.365 21.0345 130.935 19.7045C129.385 18.2645 128.605 16.3745 128.075 14.3645C127.475 12.0645 127.055 9.69449 126.925 7.31449C126.865 6.21449 126.765 4.98449 127.005 3.90449C127.215 2.94449 128.245 2.97449 129.055 2.91449C133.805 2.56449 138.485 3.65449 142.975 5.11449C147.465 6.57449 151.975 8.30449 156.245 10.3945C158.155 11.3245 160.115 12.3045 161.735 13.7045C163.355 15.1045 164.435 16.9345 165.135 18.9745C165.835 21.0145 166.245 23.2145 166.565 25.3645C166.905 27.6245 167.055 29.9245 166.965 32.2045C166.925 33.2745 166.865 34.3945 166.625 35.4445C166.555 35.7245 166.475 35.9745 166.315 36.2045C166.385 36.1045 166.145 36.3745 166.215 36.3245C166.265 36.2845 165.875 36.5045 166.045 36.4245C165.995 36.4445 165.905 36.4745 165.855 36.4745C165.875 36.4745 165.995 36.4645 165.875 36.4745C165.755 36.4845 165.635 36.4745 165.515 36.4745C165.635 36.4945 165.295 36.4145 165.245 36.4045C165.155 36.3745 164.965 36.3045 164.935 36.2945C164.375 36.0545 163.855 35.6845 163.405 35.2745C160.395 32.5645 160.515 28.0145 160.575 24.2945C160.595 23.0645 160.615 21.8345 160.565 20.5945C160.515 19.3545 158.515 19.3045 158.565 20.5945C158.675 23.3245 158.415 26.0645 158.665 28.7845C158.865 30.9445 159.325 33.2845 160.595 35.1045C162.015 37.1345 166.085 40.3545 168.075 37.1845C168.605 36.3445 168.685 35.2945 168.805 34.3245C168.955 33.0645 169.005 31.8045 168.985 30.5345C168.955 28.0045 168.645 25.4745 168.175 22.9845C167.705 20.4945 167.155 18.2145 166.055 16.0445C164.955 13.8745 163.285 12.2245 161.295 10.9045C159.305 9.58449 156.935 8.48449 154.675 7.48449C152.225 6.39449 149.725 5.41449 147.205 4.49449C142.265 2.68449 137.145 1.07449 131.845 0.884489C130.565 0.834489 129.275 0.874489 128.015 1.03449C126.945 1.17449 125.895 1.57449 125.365 2.58449C124.795 3.66449 124.865 5.06449 124.885 6.25449C124.905 7.62449 125.035 8.98449 125.225 10.3445C125.585 12.8345 126.075 15.3945 127.095 17.7045C128.025 19.8345 129.615 21.4645 131.565 22.6945C133.515 23.9245 135.835 24.9145 138.015 25.8445C140.405 26.8645 142.845 27.7445 145.435 28.0845C147.845 28.4045 150.315 28.1745 152.585 27.2645C154.615 26.4545 156.415 25.2045 158.015 23.7145C158.825 22.9545 159.565 22.1445 160.265 21.2845C161.085 20.3045 159.675 18.8745 158.855 19.8745V19.8645Z" fill="black"/>
<path d="M128.285 18.0244C122.525 20.3644 118.855 25.9144 117.185 31.7144C116.195 35.1444 115.835 38.7544 115.825 42.3144C115.815 45.8744 116.085 49.3144 116.695 52.7444C117.355 56.5044 118.535 60.2044 120.535 63.4844C121.205 64.5844 122.935 63.5744 122.265 62.4744C118.915 57.0044 118.025 50.3544 117.855 44.0544C117.685 37.7544 118.505 31.1244 122.075 25.7644C123.735 23.2844 126.025 21.0844 128.815 19.9544C129.315 19.7544 129.665 19.2844 129.515 18.7244C129.385 18.2544 128.785 17.8244 128.285 18.0244Z" fill="black"/>
<path d="M166.465 37.2346C167.105 39.6046 167.755 41.9946 167.855 44.4646C167.935 46.5446 167.645 48.6046 167.055 50.6046C165.875 54.5946 163.575 58.1946 160.785 61.2546C159.915 62.2046 161.325 63.6246 162.195 62.6646C166.885 57.5246 170.415 50.7046 169.795 43.5646C169.595 41.2246 169.005 38.9646 168.395 36.7046C168.065 35.4646 166.135 35.9946 166.465 37.2346Z" fill="black"/>
<path d="M117.285 39.6244C117.155 43.4344 123.735 35.3544 126.115 32.1744C128.495 28.9944 130.145 25.0944 130.515 20.9844C130.515 20.9844 118.065 17.1944 117.285 39.6144V39.6244Z" fill="black"/>
<path d="M116.285 39.6245C116.255 40.9145 117.145 41.9845 118.515 41.4945C119.885 41.0045 120.905 39.8345 121.845 38.8545C123.075 37.5645 124.225 36.2045 125.345 34.8145C126.605 33.2345 127.845 31.6445 128.815 29.8645C130.305 27.1145 131.235 24.1145 131.525 21.0045C131.565 20.5645 131.185 20.1545 130.795 20.0445C129.275 19.5845 127.465 19.6945 125.965 20.1045C122.125 21.1545 119.675 24.4745 118.305 28.0345C116.935 31.5945 116.445 35.7345 116.305 39.6445C116.255 40.9345 118.255 40.9345 118.305 39.6445C118.425 36.2445 118.805 32.8145 119.875 29.5645C120.525 27.6045 121.515 25.6545 122.845 24.2745C123.125 23.9845 123.425 23.7145 123.735 23.4445C123.875 23.3345 123.815 23.3845 123.815 23.3845C123.885 23.3345 123.955 23.2745 124.035 23.2245C124.195 23.1045 124.365 22.9945 124.535 22.8945C124.825 22.7145 125.135 22.5645 125.435 22.4145C125.535 22.3645 125.655 22.3145 125.475 22.3945C125.545 22.3645 125.615 22.3345 125.685 22.3045C125.835 22.2445 125.985 22.1945 126.135 22.1445C126.425 22.0545 126.715 21.9745 127.015 21.9145C127.145 21.8845 127.275 21.8645 127.405 21.8445C127.705 21.7945 127.255 21.8445 127.595 21.8245C128.065 21.7845 128.535 21.7645 129.005 21.7845C129.205 21.7945 129.405 21.8245 129.605 21.8345C129.485 21.8345 129.405 21.8045 129.635 21.8345C129.705 21.8445 129.775 21.8545 129.845 21.8745C129.985 21.9045 130.125 21.9345 130.255 21.9745L129.525 21.0145C129.115 25.3445 127.145 29.3045 124.565 32.6145C122.785 34.8845 120.925 37.2745 118.675 39.1145C118.605 39.1744 118.575 39.1945 118.415 39.3045C118.315 39.3745 118.205 39.4445 118.095 39.5044C118.005 39.5544 117.905 39.6145 117.805 39.6545C118.095 39.5245 117.765 39.6745 117.705 39.6545C117.705 39.6545 117.975 39.6545 117.825 39.6345C117.675 39.6145 117.995 39.6744 118.035 39.6845C118.155 39.7344 118.175 39.7645 118.285 39.9045C118.195 39.7945 118.315 39.9944 118.325 40.0044C118.305 39.9644 118.285 39.8745 118.285 39.8245C118.295 40.1145 118.285 39.7045 118.295 39.6245C118.325 38.3345 116.325 38.3345 116.295 39.6245H116.285Z" fill="black"/>
<path d="M121.415 43.0846C121.415 43.0846 130.035 32.4746 139.735 40.4346C139.735 40.4346 133.055 51.7646 121.415 43.0846Z" stroke="black" stroke-width="2" stroke-linejoin="round"/>
<path d="M130.575 45.8044C132.155 45.8044 133.435 44.0628 133.435 41.9144C133.435 39.766 132.155 38.0244 130.575 38.0244C128.996 38.0244 127.715 39.766 127.715 41.9144C127.715 44.0628 128.996 45.8044 130.575 45.8044Z" fill="black"/>
<path d="M141.125 40.8644C141.125 40.8644 151.645 32.6144 159.525 42.7344C159.525 42.7344 150.755 52.1644 141.125 40.8644Z" stroke="black" stroke-width="2" stroke-linejoin="round"/>
<path d="M153.113 42.3803C153.429 40.2608 152.414 38.3534 150.846 38.1199C149.278 37.8864 147.752 39.4154 147.436 41.5349C147.12 43.6544 148.135 45.5618 149.703 45.7953C151.271 46.0288 152.798 44.4998 153.113 42.3803Z" fill="black"/>
<path d="M138.565 47.3845L130.575 53.0245L138.565 53.7545" stroke="black" stroke-width="2" stroke-linecap="round" stroke-linejoin="round"/>
<path d="M142.605 57.9744C142.605 57.9744 149.825 55.8144 153.405 56.9844" stroke="black" stroke-width="2" stroke-linecap="round" stroke-linejoin="round"/>
<path d="M395.875 322.855L383.995 216.285L291.555 213.075L275.185 328.635L395.875 322.855Z" fill="black" stroke="black" stroke-width="2" stroke-miterlimit="10"/>
<path d="M395.875 319.445L466.495 209.665L444.665 203.245L389.005 257.755L395.875 319.445Z" fill="black" stroke="black" stroke-width="2" stroke-miterlimit="3"/>
<path d="M275.635 325.444L216.115 223.344L237.625 214.354L284.715 261.344L275.635 325.444Z" fill="black" stroke="black" stroke-width="2" stroke-miterlimit="3"/>
<path d="M383.995 216.285L404.385 43.4346H343.235L340.825 214.785L383.995 216.285Z" fill="black" stroke="black" stroke-width="2" stroke-miterlimit="3"/>
<path d="M291.555 213.075L264.265 43.4346L322.425 47.7646L330.745 214.435" fill="black"/>
<path d="M291.555 213.075L264.265 43.4346L322.425 47.7646L330.745 214.435" stroke="black" stroke-width="2" stroke-miterlimit="3"/>
<path d="M360.055 38.0845L354.715 1.8645L447.355 3.6445C447.355 3.6445 456.625 29.4245 399.915 23.4745C397.435 23.2145 394.875 23.5645 392.685 24.7545C389.165 26.6645 385.565 33.9045 389.545 43.4245H360.955L360.065 38.0845H360.055Z" fill="black" stroke="black" stroke-width="2" stroke-miterlimit="3"/>
<path d="M276.685 38.0845L272.285 1.8645L348.545 3.6445C348.545 3.6445 356.175 29.4245 309.485 23.4745C307.445 23.2145 305.335 23.5645 303.535 24.7545C300.635 26.6645 301.425 36.9145 304.705 46.4445L277.415 43.4345L276.685 38.0945V38.0845Z" fill="black" stroke="black" stroke-width="2" stroke-miterlimit="3"/>
<path d="M449.275 204.255C449.105 199.765 450.175 195.315 452.095 191.275C453.055 189.265 454.195 187.335 455.495 185.525C456.095 184.685 456.785 183.795 457.735 183.335C458.485 182.975 459.705 182.815 459.975 183.805C460.315 185.065 460.115 186.555 459.875 187.805C459.595 189.225 459.145 190.615 458.695 191.995C458.525 192.505 458.895 193.085 459.395 193.225C459.965 193.385 460.425 193.025 460.625 192.525C460.915 191.815 463.555 185.335 464.305 185.795C464.775 186.085 463.815 188.105 463.705 188.405C463.175 189.855 462.655 191.305 462.125 192.755L464.055 193.285C464.395 192.155 464.835 191.075 465.395 190.045C465.665 189.535 465.965 189.045 466.285 188.565C466.465 188.285 466.855 187.505 467.225 187.435C468.105 187.255 467.775 189.305 467.715 189.695C467.515 190.935 467.175 192.165 466.675 193.315L468.505 194.085C469.235 192.295 470.325 190.655 471.665 189.275C471.995 188.945 472.325 188.595 472.695 188.305C472.975 188.095 473.075 188.085 473.305 188.385C473.875 189.115 473.795 190.305 473.645 191.165C473.455 192.265 473.085 193.335 472.745 194.395C472.405 195.455 472.045 196.465 471.595 197.465C470.715 199.405 469.475 201.105 468.065 202.695C466.345 204.655 464.545 206.545 462.775 208.465C461.905 209.415 463.315 210.825 464.185 209.875C467.735 206.025 471.765 202.335 473.775 197.395C474.265 196.195 474.665 194.965 475.045 193.725C475.425 192.485 475.785 191.155 475.725 189.835C475.665 188.625 475.305 187.345 474.295 186.595C473.205 185.785 472.075 186.195 471.135 187.005C469.095 188.785 467.575 191.055 466.555 193.555C466.135 194.595 467.935 195.365 468.385 194.325C469.085 192.705 469.555 191.045 469.755 189.295C469.925 187.755 469.495 185.835 467.725 185.465C465.955 185.095 464.895 186.925 464.135 188.195C463.275 189.625 462.595 191.165 462.115 192.755C461.735 194.005 463.615 194.485 464.045 193.285C464.715 191.425 465.435 189.585 466.065 187.715C466.525 186.355 466.555 184.425 464.905 183.895C462.995 183.275 461.855 185.185 461.145 186.595C460.245 188.355 459.435 190.165 458.695 191.995L460.625 192.525C461.535 189.755 462.425 186.855 462.025 183.905C461.835 182.525 461.095 181.445 459.675 181.145C458.405 180.875 457.065 181.285 456.045 182.045C455.025 182.805 454.265 183.835 453.535 184.875C452.775 185.965 452.065 187.095 451.415 188.255C450.135 190.555 449.095 193.005 448.375 195.535C447.565 198.365 447.175 201.325 447.295 204.265C447.345 205.545 449.345 205.555 449.295 204.265L449.275 204.255Z" fill="black"/>
<path d="M219.025 220.645C215.995 217.295 213.995 213.145 212.875 208.785C212.295 206.545 211.925 204.235 211.805 201.925C211.755 200.825 211.765 199.595 212.465 198.665C212.705 198.355 213.045 198.055 213.435 197.955C213.935 197.835 214.305 198.245 214.635 198.565C216.465 200.345 217.445 202.785 218.375 205.105C218.575 205.605 219.045 205.955 219.605 205.805C220.115 205.665 220.465 205.095 220.305 204.575C220.045 203.775 217.815 197.075 218.795 196.885C218.705 196.905 218.835 196.935 218.895 196.975C219.065 197.105 219.175 197.305 219.275 197.485C219.565 198.005 219.725 198.595 219.925 199.145C220.455 200.595 220.975 202.045 221.505 203.495L223.435 202.965C222.935 201.785 222.555 200.575 222.295 199.325C222.175 198.735 222.085 198.135 222.025 197.525C221.995 197.235 221.835 196.445 222.105 196.225C222.755 195.705 223.715 197.445 223.925 197.805C224.575 198.895 225.065 200.045 225.425 201.255L227.355 200.725C226.685 198.625 226.445 196.435 226.695 194.235C226.725 193.975 226.785 193.225 226.915 193.115C227.025 193.025 227.475 193.145 227.665 193.235C228.395 193.585 228.935 194.295 229.345 194.975C230.395 196.735 231.125 198.805 231.715 200.755C232.375 202.925 232.545 205.125 232.495 207.385C232.435 210.045 232.265 212.705 232.135 215.355C232.075 216.645 234.075 216.635 234.135 215.355C234.395 209.955 235.125 204.415 233.315 199.205C232.565 197.045 231.755 194.615 230.275 192.835C229.615 192.045 228.705 191.325 227.665 191.145C226.495 190.935 225.405 191.425 224.985 192.575C224.765 193.195 224.725 193.925 224.665 194.575C224.605 195.305 224.585 196.045 224.625 196.775C224.695 198.295 224.975 199.805 225.435 201.245C225.825 202.465 227.735 201.955 227.365 200.715C226.885 199.105 226.185 197.535 225.255 196.135C224.425 194.905 223.095 193.745 221.505 194.315C219.795 194.925 219.945 196.855 220.135 198.325C220.365 200.105 220.825 201.835 221.525 203.495C221.735 203.995 222.185 204.345 222.755 204.195C223.245 204.065 223.635 203.475 223.455 202.965C222.785 201.105 222.135 199.235 221.425 197.395C220.925 196.095 219.835 194.465 218.185 194.995C217.435 195.235 216.875 195.885 216.655 196.635C216.385 197.545 216.635 198.505 216.835 199.405C217.275 201.325 217.795 203.225 218.395 205.105L220.325 204.575C219.325 202.075 218.285 199.515 216.425 197.515C215.505 196.525 214.355 195.645 212.925 196.025C211.725 196.345 210.815 197.335 210.325 198.445C209.725 199.825 209.765 201.345 209.885 202.815C209.995 204.175 210.175 205.535 210.425 206.875C210.905 209.475 211.675 212.005 212.735 214.425C213.945 217.215 215.585 219.785 217.625 222.045C218.495 223.005 219.905 221.585 219.035 220.635L219.025 220.645Z" fill="black"/>
<path d="M316.435 368.495C319.125 365.225 322.285 362.735 326.235 362.045C331.105 361.185 335.955 363.345 340.495 365.465C342.925 366.595 345.455 367.825 347.065 370.125C348.185 371.735 348.755 373.725 349.195 375.695C349.835 378.575 350.245 381.535 350.075 384.495C350.035 385.105 349.965 385.755 349.615 386.225C349.155 386.845 348.365 386.995 347.645 387.065C341.345 387.715 335.065 385.805 329.055 383.605C325.295 382.225 321.565 380.725 317.975 378.875C315.735 377.725 313.495 376.395 311.915 374.295C310.445 372.345 309.655 369.875 309.115 367.405C308.175 363.095 307.625 358.075 308.355 353.665C309.055 349.465 313.485 352.505 314.865 354.975C315.965 356.925 316.335 359.275 316.425 361.575C316.515 363.875 316.345 366.175 316.445 368.475" fill="black"/>
<path d="M317.145 369.205C319.635 366.205 322.755 363.575 326.725 362.975C331.375 362.275 335.975 364.465 340.075 366.375C341.825 367.195 343.635 368.035 345.065 369.365C346.615 370.805 347.395 372.695 347.925 374.705C348.525 377.005 348.945 379.375 349.075 381.755C349.135 382.855 349.235 384.085 348.995 385.165C348.785 386.125 347.755 386.095 346.945 386.155C342.195 386.505 337.515 385.415 333.025 383.955C328.535 382.495 324.025 380.765 319.755 378.675C317.845 377.745 315.885 376.765 314.265 375.365C312.645 373.965 311.565 372.135 310.865 370.095C310.165 368.055 309.755 365.855 309.435 363.705C309.095 361.445 308.945 359.145 309.035 356.865C309.075 355.795 309.135 354.675 309.375 353.625C309.445 353.345 309.525 353.095 309.685 352.865C309.615 352.965 309.855 352.695 309.785 352.745C309.735 352.785 310.125 352.565 309.955 352.645C310.005 352.625 310.095 352.595 310.145 352.595C310.125 352.595 310.005 352.605 310.125 352.595C310.245 352.585 310.365 352.595 310.485 352.595C310.365 352.575 310.705 352.655 310.755 352.665C310.845 352.695 311.035 352.765 311.065 352.775C311.625 353.015 312.145 353.385 312.595 353.795C315.605 356.505 315.485 361.055 315.425 364.775C315.405 366.005 315.385 367.235 315.435 368.475C315.485 369.715 317.485 369.765 317.435 368.475C317.325 365.745 317.585 363.005 317.335 360.285C317.135 358.125 316.675 355.785 315.405 353.965C313.985 351.935 309.915 348.715 307.925 351.885C307.395 352.725 307.315 353.775 307.195 354.745C307.045 356.005 306.995 357.265 307.015 358.535C307.045 361.065 307.355 363.595 307.825 366.085C308.295 368.575 308.845 370.855 309.945 373.025C311.045 375.195 312.715 376.845 314.705 378.165C316.695 379.485 319.065 380.585 321.325 381.585C323.775 382.675 326.275 383.655 328.795 384.575C333.735 386.385 338.855 387.995 344.155 388.185C345.435 388.235 346.725 388.195 347.985 388.035C349.055 387.895 350.105 387.495 350.635 386.485C351.205 385.405 351.135 384.005 351.115 382.815C351.095 381.445 350.965 380.085 350.775 378.725C350.415 376.235 349.925 373.675 348.905 371.365C347.975 369.235 346.385 367.605 344.435 366.375C342.485 365.145 340.165 364.155 337.985 363.225C335.595 362.205 333.155 361.325 330.565 360.985C328.155 360.665 325.685 360.895 323.415 361.805C321.385 362.615 319.585 363.865 317.985 365.355C317.175 366.115 316.435 366.925 315.735 367.785C314.915 368.765 316.325 370.195 317.145 369.195V369.205Z" fill="black"/>
<path d="M347.715 371.044C353.475 368.704 357.145 363.154 358.815 357.354C359.805 353.924 360.165 350.314 360.175 346.754C360.185 343.194 359.915 339.754 359.305 336.324C358.645 332.564 357.465 328.864 355.465 325.584C354.795 324.484 353.065 325.494 353.735 326.594C357.085 332.064 357.975 338.714 358.145 345.014C358.315 351.314 357.495 357.944 353.925 363.304C352.265 365.784 349.975 367.984 347.185 369.114C346.685 369.314 346.335 369.784 346.485 370.344C346.615 370.814 347.215 371.244 347.715 371.044Z" fill="black"/>
<path d="M309.525 351.845C308.885 349.475 308.235 347.085 308.135 344.615C308.055 342.535 308.345 340.475 308.935 338.475C310.115 334.485 312.415 330.885 315.205 327.825C316.075 326.875 314.665 325.455 313.795 326.415C309.105 331.555 305.575 338.375 306.195 345.515C306.395 347.855 306.985 350.115 307.595 352.375C307.925 353.615 309.855 353.085 309.525 351.845Z" fill="black"/>
<path d="M344.985 368.365C345.355 364.255 346.995 360.355 349.385 357.175C351.775 353.995 354.865 351.535 358.215 349.725C358.215 349.725 360.915 362.725 347.135 370.665L344.985 368.355V368.365Z" fill="black"/>
<path d="M345.985 368.365C346.725 360.575 352.025 354.225 358.725 350.595L357.255 349.995C357.275 350.105 357.295 350.225 357.315 350.345C357.355 350.595 357.295 350.185 357.315 350.285C357.315 350.365 357.335 350.435 357.345 350.515C357.365 350.715 357.385 350.915 357.395 351.115C357.475 352.245 357.445 353.385 357.335 354.505C357.195 355.875 356.785 357.615 356.235 359.095C355.555 360.925 354.555 362.685 353.335 364.205C351.485 366.505 349.185 368.335 346.645 369.815L347.855 369.975C347.135 369.205 346.425 368.435 345.705 367.665C344.825 366.725 343.415 368.135 344.295 369.075C345.015 369.845 345.725 370.615 346.445 371.385C346.745 371.705 347.285 371.755 347.655 371.545C352.035 369.005 355.765 365.355 357.765 360.645C358.995 357.755 359.595 354.565 359.425 351.425C359.385 350.775 359.335 350.115 359.205 349.475C359.075 348.835 358.265 348.585 357.735 348.875C350.375 352.875 344.815 359.875 344.005 368.375C343.955 368.915 344.505 369.375 345.005 369.375C345.585 369.375 345.955 368.915 346.005 368.375L345.985 368.365Z" fill="black"/>
<path d="M339.165 347.185C339.165 347.185 345.315 336.745 356.045 344.745" stroke="black" stroke-width="2" stroke-linecap="round" stroke-linejoin="round"/>
<path d="M317.165 345.055C317.165 345.055 325.245 336.365 334.115 346.775" stroke="black" stroke-width="2" stroke-linecap="round" stroke-linejoin="round"/>
<path d="M338.055 340.865L345.415 335.665L338.055 334.995" stroke="black" stroke-width="2" stroke-linecap="round" stroke-linejoin="round"/>
<path d="M333.165 330.854C333.165 330.854 326.725 332.774 323.525 331.734" stroke="black" stroke-width="2" stroke-linecap="round" stroke-linejoin="round"/>
</g>
<defs>
<clipPath id="clip0_1_673">
<rect width="475.49" height="387.41" fill="white" transform="translate(0.255005 0.834473)"/>
</clipPath>
</defs>
</svg>
