<svg width="404" height="421" viewBox="0 0 404 421" fill="none" xmlns="http://www.w3.org/2000/svg">
<g clip-path="url(#clip0_1_587)">
<path d="M219.019 45.5411L238.796 182.475L173.248 185.289L178.488 43.6617L219.019 45.5411Z" fill="black" stroke="black" stroke-width="1.98873" stroke-linecap="round" stroke-linejoin="round"/>
<path d="M187.974 43.2342C188.313 34.4341 185.827 25.803 186.175 17.0028C186.334 13.0751 187.08 9.0678 188.959 5.57758C189.347 4.86164 189.814 4.04626 190.61 3.72806C191.226 3.47947 191.942 3.59879 192.539 3.85733C194.14 4.55338 194.846 6.1742 195.094 7.80496C195.452 10.1119 195.213 12.5481 195.194 14.8749C195.164 17.51 195.134 20.145 195.104 22.7801L197.053 22.5116C196.466 19.1805 197.312 15.8195 197.779 12.5381C197.998 10.9869 198.087 9.42577 198.246 7.86462C198.376 6.562 198.634 5.0804 199.519 4.06614C200.175 3.32037 201.239 2.66409 202.273 2.85302C203.526 3.08172 203.974 4.5335 204.212 5.60741C204.889 8.59051 204.381 11.6929 203.835 14.6462C203.198 18.0569 202.433 21.5272 202.82 25.0174C202.87 25.5047 203.158 25.9322 203.685 25.9919C204.153 26.0516 204.67 25.7731 204.779 25.276C205.147 23.6551 205.505 22.0343 205.784 20.3936C206.062 18.7529 206.181 17.2315 206.321 15.6306C206.46 14.0297 206.808 12.6873 207.554 11.335C208.24 10.1019 209.105 8.98825 210.029 7.93422C210.457 7.43704 210.895 6.9498 211.342 6.47251C211.7 6.09465 212.217 5.4682 212.804 5.48809C213.341 5.49803 213.828 6.13442 214.146 6.51228C214.554 6.99952 214.882 7.56631 215.141 8.14304C215.648 9.2965 215.847 10.629 215.687 11.8819C215.498 13.2939 214.832 14.5965 214.246 15.8693C212.754 19.1208 211.949 22.5912 211.978 26.1709C211.978 27.2746 213.649 27.5332 213.927 26.4394C214.395 24.6495 214.554 22.8 215.041 21.0201C215.528 19.2402 216.553 17.7088 217.636 16.2073C218.84 14.5368 220.053 12.8762 221.256 11.2057C221.574 10.7682 222.151 9.63459 222.807 9.6147C223.394 9.59481 223.831 10.4201 224.04 10.8676C225.581 14.149 224.895 18.2358 224.229 21.6465C223.483 25.4251 222.489 29.144 221.256 32.7934C219.864 36.9001 218.153 40.8875 216.165 44.7357L217.02 44.2385C213.639 44.0098 210.258 43.791 206.877 43.5623C201.488 43.2044 196.098 42.8464 190.709 42.4785C189.476 42.3989 188.233 42.3094 187 42.2299C185.767 42.1503 185.727 44.1291 187 44.2186C190.381 44.4473 193.762 44.6661 197.143 44.8948C202.532 45.2528 207.921 45.6107 213.311 45.9786C214.544 46.0582 215.787 46.1477 217.02 46.2272C217.348 46.2471 217.726 46.0284 217.875 45.73C221.773 38.2127 224.607 30.1483 226.208 21.8255C226.954 17.9574 227.6 13.3336 225.671 9.68431C224.836 8.10327 222.996 6.91003 221.325 8.10327C220.51 8.68 219.973 9.59481 219.396 10.3903C218.72 11.325 218.044 12.2597 217.368 13.1944C215.996 15.0837 214.464 16.9432 213.589 19.1208C212.714 21.2985 212.605 23.6452 212.028 25.8925L213.977 26.1609C213.947 22.6309 214.812 19.3495 216.294 16.1676C216.96 14.7257 217.567 13.274 217.706 11.673C217.835 10.1616 217.527 8.63028 216.92 7.23817C216.344 5.92561 215.359 4.46389 214.047 3.79766C212.565 3.04195 211.133 3.83744 210.079 4.9213C207.911 7.15862 205.674 9.76386 204.799 12.8265C204.262 14.7257 204.332 16.7443 204.063 18.6833C203.795 20.6223 203.327 22.7304 202.88 24.739L204.829 25.0075C204.083 18.1364 207.991 11.3051 206.012 4.48378C205.575 2.98229 204.69 1.53051 203.129 1.0035C201.856 0.575921 200.394 0.933893 199.3 1.65978C196.347 3.60874 196.367 7.21828 196.079 10.3804C195.691 14.6164 194.408 18.743 195.154 23.0287C195.353 24.1623 197.093 23.854 197.103 22.7602C197.133 20.2544 197.162 17.7387 197.182 15.2329C197.212 12.916 197.381 10.5494 197.143 8.25242C196.944 6.25375 196.337 4.20535 194.716 2.89279C193.284 1.72939 191.306 1.18248 189.575 2.01775C187.726 2.91268 186.821 5.22955 186.115 7.01941C185.31 9.03797 184.812 11.156 184.524 13.2939C183.908 17.7784 184.186 22.2829 184.693 26.7576C185.31 32.2266 186.204 37.6956 185.996 43.2143C185.946 44.497 187.935 44.497 187.984 43.2143L187.974 43.2342Z" fill="black"/>
<path d="M184.236 110.652C181.024 110.652 25.9228 164.239 25.9228 164.239L233.984 221.037L362.883 139.588L184.246 110.652H184.236Z" stroke="black" stroke-width="1.98873" stroke-linecap="round" stroke-linejoin="round"/>
<path d="M25.9228 164.239L1.54095 360.357L238.797 419.84L233.974 221.037L25.9228 164.239Z" stroke="black" stroke-width="1.98873" stroke-linecap="round" stroke-linejoin="round"/>
<path d="M362.873 139.588L402.459 338.929L238.796 419.84L233.974 221.037L362.873 139.588Z" stroke="black" stroke-width="1.98873" stroke-linecap="round" stroke-linejoin="round"/>
<path d="M202.96 123.609L82.6116 158.083L226.486 204.858L306.185 146.927L202.96 123.609Z" fill="black" stroke="black" stroke-width="1.98873" stroke-linecap="round" stroke-linejoin="round"/>
<path d="M23.6656 182.366L234.918 259.936L369.874 174.819" stroke="black" stroke-width="1.98873" stroke-linecap="round" stroke-linejoin="round"/>
<path d="M17.3613 233.088L233.974 289.499L378.326 217.377" stroke="black" stroke-width="1.98873" stroke-linecap="round" stroke-linejoin="round"/>
<path d="M10.351 289.499L236.569 327.941L384.113 246.522" stroke="black" stroke-width="1.98873" stroke-linecap="round" stroke-linejoin="round"/>
<path d="M5.56812 327.941L237.305 358.627L398.213 317.58" stroke="black" stroke-width="1.98873" stroke-linecap="round" stroke-linejoin="round"/>
<path d="M56.2609 172.522L46.5559 371.116" stroke="black" stroke-width="1.98873" stroke-linecap="round" stroke-linejoin="round"/>
<path d="M110.265 187.258L85.6444 381.448" stroke="black" stroke-width="1.98873" stroke-linecap="round" stroke-linejoin="round"/>
<path d="M160.212 200.901V400.142" stroke="black" stroke-width="1.98873" stroke-linecap="round" stroke-linejoin="round"/>
<path d="M259.579 204.858L293.178 392.952" stroke="black" stroke-width="1.98873" stroke-linecap="round" stroke-linejoin="round"/>
<path d="M306.185 175.415L328.886 375.303" stroke="black" stroke-width="1.98873" stroke-linecap="round" stroke-linejoin="round"/>
<path d="M345.8 150.377L364.912 357.484" stroke="black" stroke-width="1.98873" stroke-linecap="round" stroke-linejoin="round"/>
</g>
<defs>
<clipPath id="clip0_1_587">
<rect width="402.907" height="420" fill="white" transform="translate(0.54657 0.834473)"/>
</clipPath>
</defs>
</svg>
